<svg version="1.1" id="Layer_1" xmlns="http://www.w3.org/2000/svg" xmlns:xlink="http://www.w3.org/1999/xlink" x="0px" y="0px"
	 width="100%" viewBox="0 0 479 135" enable-background="new 0 0 479 135" xml:space="preserve">
<path fill="#79ACDC" opacity="1.000000" stroke="none" 
	d="
M408.314209,135.676666 
	C301.645782,136.000000 195.291550,136.000000 88.468658,136.000000 
	C86.294205,134.657684 85.759880,132.826950 85.771301,130.747711 
	C85.805405,124.538002 84.970406,118.317017 88.747826,112.556702 
	C90.660774,109.639603 89.568810,105.776131 89.714073,102.335258 
	C89.987282,95.864075 90.484558,95.289139 97.035103,94.674896 
	C99.471016,93.567314 102.125420,94.214874 103.983925,91.942154 
	C104.311142,91.329422 104.417992,90.950027 104.455612,90.244911 
	C102.978844,85.607399 100.816147,81.582924 99.072647,77.379112 
	C98.261177,75.422531 97.214073,73.548286 97.761482,70.944992 
	C100.815643,66.123688 102.044388,60.882748 104.821289,55.917717 
	C108.757988,54.392845 112.371460,54.423843 116.428772,55.710800 
	C117.113930,56.080112 117.366035,56.266262 117.886902,56.836823 
	C119.812065,60.685818 119.290367,64.401512 119.307861,68.028778 
	C119.340744,74.846840 119.496368,81.668251 119.117676,88.890442 
	C119.496780,90.742729 116.962654,92.336273 119.633644,93.728714 
	C125.917877,94.666313 127.314667,93.555466 127.768822,87.568916 
	C127.893066,85.931114 127.823639,84.268150 128.535522,82.340126 
	C131.498932,76.619797 131.229111,71.210709 128.703339,65.384705 
	C127.948387,61.817883 129.104294,59.165718 131.339355,56.425072 
	C132.206238,55.799118 132.781921,55.614712 133.858475,55.537987 
	C139.511658,54.862068 144.705078,54.464043 150.347366,55.582817 
	C151.089050,55.694263 151.379822,55.761089 152.054092,56.049423 
	C154.683044,58.756084 155.322174,61.710831 155.312424,64.995026 
	C155.291733,71.976448 155.262253,78.959099 155.348022,85.940681 
	C155.370407,87.762077 155.287643,89.620476 156.224030,91.292709 
	C157.021133,92.716255 158.225098,93.524124 159.891159,93.378433 
	C161.339188,93.251816 162.325317,92.387222 162.929169,91.098808 
	C163.733276,89.383049 163.637512,87.529305 163.655365,85.707733 
	C163.725388,78.559738 163.645630,71.411179 163.703995,64.263077 
	C163.725739,61.603668 163.680161,58.922672 165.535431,56.236473 
	C170.187027,54.067215 174.570328,54.427090 179.388824,55.736931 
	C182.278763,57.780239 182.212448,60.522945 182.262787,63.173489 
	C182.404892,70.656006 182.220352,78.141243 182.362747,85.623558 
	C182.465347,91.015205 184.203827,93.955765 187.182861,93.485756 
	C191.639099,92.782669 191.549576,89.063652 191.624207,85.728546 
	C191.784195,78.579430 191.627914,71.426826 191.710693,64.276222 
	C191.739456,61.790688 191.605270,59.259106 193.309708,56.672623 
	C197.914490,53.830051 202.531540,54.721802 207.515076,55.309883 
	C208.193298,55.576862 208.463318,55.673309 209.091354,55.991051 
	C211.259338,58.259087 211.218277,60.784355 211.241272,63.276901 
	C211.308655,70.590347 211.239548,77.904236 211.282883,85.217796 
	C211.292740,86.877533 211.200577,88.558403 211.643387,90.177269 
	C212.221817,92.291969 213.528366,93.727066 215.821625,93.830177 
	C217.960800,93.926361 219.110748,92.528404 219.881393,90.730324 
	C220.620285,89.006348 220.676102,87.175934 220.703430,85.344337 
	C220.775299,80.524353 220.645004,75.702431 220.777603,70.883850 
	C220.958115,64.324425 222.374069,62.941040 228.719910,62.785751 
	C237.113770,62.580357 243.884903,65.088417 248.246521,72.966988 
	C251.375854,78.619598 255.488876,83.705002 258.826019,89.263840 
	C259.516846,90.414520 260.299622,91.481239 261.340118,92.332527 
	C262.974792,93.669960 264.789185,94.623611 266.765015,93.216820 
	C268.778931,91.782906 268.640350,89.617004 267.488586,87.860794 
	C263.042114,81.080849 259.417206,73.690186 253.155548,68.224815 
	C249.472244,65.009903 249.823700,62.445065 254.208374,60.380833 
	C256.738739,59.189575 259.738983,59.042992 262.192657,56.704086 
	C263.177521,55.888157 263.945953,55.596466 265.248413,55.525101 
	C271.526489,54.299706 277.392212,54.518658 283.698364,55.184921 
	C286.134491,54.875050 288.146454,55.344620 290.585785,55.145706 
	C297.989197,56.037582 304.994080,53.509148 312.416260,55.498985 
	C313.526154,55.540661 314.142181,55.672134 315.132690,56.192947 
	C317.088776,58.375702 317.187439,60.601036 316.801544,63.363663 
	C316.422668,64.386566 316.097626,64.902908 315.381409,65.664673 
	C309.767029,68.498482 303.872864,66.495758 298.418457,68.123291 
	C296.700378,68.635941 294.839783,68.802200 293.062103,69.230682 
	C288.327850,70.371803 284.915344,72.790466 284.030670,77.969627 
	C283.172424,82.993980 284.565643,87.165733 288.407349,90.483360 
	C294.420227,95.675957 302.939514,96.023911 309.544006,90.941925 
	C312.880554,88.374519 315.144196,87.537720 318.095154,91.577866 
	C320.399048,94.732132 323.942627,93.563499 325.204315,89.709145 
	C325.730255,88.102440 325.717072,86.425598 325.698334,84.767258 
	C325.608215,76.792183 326.067902,68.808853 325.400055,60.843491 
	C325.252960,59.089401 325.531891,57.542732 327.143127,56.016621 
	C331.901245,54.319687 336.309143,54.072723 341.028992,56.076862 
	C343.766327,58.100071 344.296844,60.570644 344.299866,63.382553 
	C344.307739,70.710304 344.273529,78.038322 344.326935,85.365997 
	C344.339050,87.028305 344.245270,88.710098 344.694611,90.333519 
	C345.237366,92.294388 346.451080,93.582329 348.596161,93.532883 
	C350.741913,93.483406 351.880463,92.120354 352.363159,90.158745 
	C352.724030,88.692238 352.659576,87.180489 352.673340,85.683212 
	C352.739197,78.522346 352.472656,71.353798 352.839325,64.202957 
	C353.014801,60.781345 351.842743,59.240692 348.376526,59.265800 
	C346.426575,59.279926 344.315857,59.470619 342.486694,57.484051 
	C338.915771,53.115231 338.818085,46.058735 341.995941,42.603668 
	C345.307220,39.003532 350.278748,38.749451 354.864166,42.556030 
	C357.389709,44.652641 359.027069,43.369968 361.053558,42.231979 
	C369.849182,37.292728 382.725250,38.946850 388.490936,46.000969 
	C390.973816,49.038631 393.494141,52.351089 391.707062,57.149105 
	C389.597961,59.232094 387.221985,59.254791 384.896881,59.307430 
	C381.819275,59.377110 380.333984,60.822800 380.334473,63.937569 
	C380.335754,72.099792 380.200226,80.263084 380.419159,88.423378 
	C380.490265,91.074493 381.188263,93.708618 384.410370,93.780815 
	C388.018799,93.861671 388.539032,91.009735 388.616791,88.191574 
	C388.786743,82.029747 388.611298,75.864243 388.717743,69.701836 
	C388.760498,67.227699 388.439697,64.684090 389.895508,62.017944 
	C393.897369,59.383133 396.289886,61.024975 397.366943,64.635841 
	C399.166016,70.667145 402.110748,76.332169 403.104156,82.609985 
	C403.411774,84.553970 404.539429,85.923386 406.229309,87.490479 
	C407.201355,89.271454 407.025269,90.814743 407.055969,92.773987 
	C406.493561,94.635414 406.034302,95.976273 406.702667,97.535248 
	C411.440826,108.586899 410.182037,120.258087 410.133270,131.799149 
	C410.127502,133.162170 409.699341,134.409882 408.314209,135.676666 
z"/>
<path fill="#77ABDC" opacity="1.000000" stroke="none" 
	d="
M21.291988,135.672638 
	C15.336554,136.000000 9.667854,135.857407 4.012080,136.065720 
	C1.528138,136.157181 0.918303,135.540878 0.932000,133.012695 
	C1.050210,111.192413 1.000000,89.371208 1.000000,67.550285 
	C1.000000,46.895363 1.094672,26.239592 0.910070,5.586320 
	C0.877993,1.997586 1.462411,0.885806 5.409534,0.891760 
	C98.023338,1.031463 190.637390,1.000000 283.251404,1.000000 
	C347.548187,1.000000 411.845001,1.017493 476.141693,0.942205 
	C479.000031,0.938858 480.112122,1.240863 480.100006,4.637839 
	C479.947510,47.279716 479.952148,89.922485 480.097565,132.564407 
	C480.108337,135.724152 479.263123,136.281387 476.434326,136.063828 
	C472.956909,135.796356 469.443298,136.000000 465.472656,136.000000 
	C462.890167,134.396729 462.766937,132.078476 462.730469,129.722748 
	C462.622772,122.761864 462.736176,115.800293 462.659454,108.839424 
	C462.633850,106.516495 462.945984,103.935455 461.534882,102.067429 
	C458.459839,97.996567 458.464233,93.368370 458.742889,88.772545 
	C459.175262,81.641937 456.355469,75.211426 453.370972,69.376137 
	C450.705414,64.164398 450.847321,60.522644 454.549133,56.050854 
	C458.201141,54.136101 461.766907,54.877697 465.220764,54.619442 
	C470.063080,54.257366 471.467957,53.059910 471.562897,48.178654 
	C471.766998,37.684170 471.774963,27.183966 471.558258,16.689707 
	C471.459625,11.912319 469.992371,10.660362 465.092041,10.400710 
	C463.095551,10.294921 461.093903,10.348841 459.094513,10.348825 
	C314.966248,10.347642 170.837982,10.347031 26.709707,10.349132 
	C14.356023,10.349312 14.348627,10.356128 14.350741,22.875463 
	C14.352120,31.039892 14.251367,39.205517 14.397648,47.368385 
	C14.502060,53.194809 15.747514,54.387695 21.469337,54.626331 
	C24.295717,54.744205 27.140083,54.576645 30.353546,55.385956 
	C34.625160,60.131386 35.540150,64.917015 31.945026,70.076935 
	C31.566080,70.620811 31.165554,71.227821 31.100643,71.871185 
	C30.030767,82.475372 24.515436,92.342789 25.880342,103.347633 
	C26.045406,104.678490 26.270124,106.135063 25.570232,107.268555 
	C21.141884,114.440407 22.458359,122.370758 22.401487,130.122314 
	C22.388388,131.907944 23.070948,133.793564 21.291988,135.672638 
z"/>
<path fill="#78ABDC" opacity="1.000000" stroke="none" 
	d="
M454.816956,56.922798 
	C450.579010,64.518723 457.383606,69.646912 458.641541,75.767006 
	C459.461060,79.754021 461.176514,83.537567 461.036346,87.787834 
	C460.884857,92.380486 460.430817,97.031410 463.874634,100.983963 
	C465.320007,102.642845 465.003998,105.063766 465.002228,107.226173 
	C464.994659,116.505013 464.999634,125.783844 465.000000,135.531342 
	C456.312439,136.000000 447.624878,136.000000 438.468658,136.000000 
	C437.583466,136.114487 437.927856,134.901428 437.103790,135.772888 
	C427.645782,136.000000 418.291534,136.000000 408.468658,136.000000 
	C407.946228,125.960037 408.160614,115.926674 407.066406,105.899162 
	C406.605164,101.672462 403.311646,98.059044 404.882812,93.256058 
	C406.077911,92.399208 406.967712,92.768341 407.902100,93.144707 
	C413.156097,95.260902 415.819489,93.648849 416.600037,87.970268 
	C417.130981,84.107849 415.958069,80.074463 418.020569,76.062744 
	C420.374481,74.375893 421.975098,75.209000 423.156708,77.062729 
	C424.350281,78.935249 425.835968,80.264633 428.447571,80.691620 
	C429.016235,80.915215 429.226501,81.038033 429.685486,81.420181 
	C430.604828,82.813606 430.685333,84.131020 430.950958,85.364609 
	C431.634003,88.536354 433.268982,89.356010 436.437988,87.701828 
	C439.141174,87.273689 440.912384,88.417679 442.540375,89.936607 
	C443.509460,90.840790 444.418243,91.830971 445.560211,92.518181 
	C447.134979,93.465836 448.861664,94.613678 450.500488,92.874809 
	C452.108368,91.168785 451.776306,89.138428 450.453491,87.416664 
	C448.734497,85.179222 446.756866,83.108818 444.466309,81.477943 
	C441.052094,79.046989 438.276428,75.972092 435.384796,73.018150 
	C432.108276,69.670959 432.329071,67.797104 435.315002,64.016090 
	C438.160858,60.412479 442.423401,58.710613 446.028748,55.537411 
	C446.663208,55.353420 446.931671,55.311836 447.615631,55.301128 
	C450.252136,55.615463 452.787354,54.142605 454.816956,56.922798 
z"/>
<path fill="#78ACDD" opacity="1.000000" stroke="none" 
	d="
M98.960587,95.722931 
	C98.511681,97.493607 97.542831,98.113579 96.267471,97.483780 
	C92.006767,95.379738 91.984673,98.044731 91.979607,101.067673 
	C91.969734,106.971077 92.128807,112.569397 88.870148,118.310356 
	C86.173019,123.062012 88.287247,129.424255 88.000000,135.531982 
	C75.979103,136.000000 63.958210,136.000000 51.468658,136.000000 
	C47.966522,132.137283 49.151619,127.672417 49.252827,123.378113 
	C49.266922,122.780006 49.928806,122.215736 49.897324,121.535500 
	C49.335403,109.395325 52.211613,97.708481 54.333317,85.897743 
	C54.845062,83.049034 55.790009,80.543739 57.135124,77.616714 
	C58.819660,75.803772 60.699623,75.834511 62.504543,75.791679 
	C69.627808,75.622597 76.751862,75.699562 83.876762,75.761360 
	C87.565918,75.793358 89.988182,77.348312 91.938858,80.501518 
	C94.836479,85.185425 96.148048,90.566383 98.960587,95.722931 
z"/>
<path fill="#78ACDD" opacity="1.000000" stroke="none" 
	d="
M21.468653,136.000000 
	C19.457195,129.260864 18.692835,122.047760 20.385178,115.699898 
	C22.879255,106.344780 21.965771,96.359398 24.848970,87.738510 
	C27.144897,80.873589 25.936056,72.843613 31.178350,66.819794 
	C33.374062,64.296745 31.109907,61.042976 31.012299,57.725006 
	C32.608444,53.966522 35.782009,54.984161 38.453579,54.749439 
	C40.437275,54.575157 42.444786,54.751892 44.836517,55.300941 
	C45.502190,55.638645 45.749462,55.795631 46.297485,56.256466 
	C48.089813,59.125057 46.858929,61.389622 45.765888,63.633598 
	C42.487949,70.363106 39.655979,77.300682 36.217079,83.956795 
	C35.227539,85.872086 34.528584,87.940514 34.360065,90.458878 
	C34.418701,91.201073 34.503895,91.608315 34.824780,92.249832 
	C38.364170,94.674637 40.589596,93.197510 42.222809,90.168045 
	C43.942562,86.978065 44.920246,83.437111 46.816795,80.321793 
	C48.629131,77.344818 50.806358,75.414101 54.746780,77.710709 
	C56.100025,79.732185 55.550518,81.533752 55.177826,83.304916 
	C51.944675,98.670059 49.454929,114.122795 49.295731,129.881973 
	C49.276363,131.799194 49.322788,133.934174 47.288147,135.702332 
	C38.645767,136.000000 30.291536,136.000000 21.468653,136.000000 
z"/>
<path fill="#77ABDC" opacity="1.000000" stroke="none" 
	d="
M47.399994,136.000000 
	C47.590424,123.318748 49.335934,110.774406 50.862816,98.185783 
	C51.651390,91.684235 54.554295,85.574898 54.003815,78.569839 
	C54.915974,76.994331 56.082256,76.988434 57.680321,77.868118 
	C55.556103,86.211823 55.304649,94.692329 52.508980,102.645760 
	C51.668716,105.036247 52.112549,107.884514 52.003834,110.524544 
	C51.665218,118.747658 51.343708,126.971474 51.007782,135.597504 
	C49.933331,136.000000 48.866661,136.000000 47.399994,136.000000 
z"/>
<path fill="#77ABDC" opacity="1.000000" stroke="none" 
	d="
M437.250000,136.000000 
	C436.561310,135.299149 436.079498,134.621185 435.693085,133.892609 
	C434.924744,132.443924 434.837189,130.982330 436.205719,129.867538 
	C436.604218,129.542908 437.604156,129.442581 437.994690,129.716049 
	C439.302643,130.631927 438.931763,132.036285 438.663544,133.334946 
	C438.529968,133.981628 438.322815,134.613113 438.074493,135.625732 
	C438.000000,136.000000 437.500000,136.000000 437.250000,136.000000 
z"/>
<path fill="#073763" opacity="1.000000" stroke="none" 
	d="
M46.325150,57.601391 
	C41.322540,56.523872 36.605419,57.349728 31.462568,57.256042 
	C25.843163,57.259735 20.682129,57.055992 15.527788,57.165951 
	C12.721766,57.225811 11.758199,56.256920 11.779176,53.438545 
	C11.883297,39.449459 11.867811,25.458973 11.792449,11.469530 
	C11.778931,8.960151 12.520737,7.722244 15.197166,7.975180 
	C16.682518,8.115552 18.192551,7.992095 19.691458,7.992095 
	C168.750214,7.992105 317.808990,7.984882 466.867737,8.013448 
	C475.153259,8.015036 474.118317,6.770063 474.162659,15.526030 
	C474.225067,27.850121 474.030548,40.177563 474.264282,52.497528 
	C474.337158,56.337322 473.055725,57.408199 469.409241,57.187401 
	C464.930603,56.916210 460.420990,57.157387 455.461914,57.254601 
	C452.589386,57.255089 450.179718,57.178059 447.317139,57.071938 
	C445.699219,54.528549 447.575714,53.068485 448.816254,51.379860 
	C450.067688,49.676456 450.883240,47.810669 449.272003,45.982124 
	C447.483368,43.952160 445.403656,44.590347 443.486786,45.900845 
	C438.843811,49.075062 435.574280,53.820683 430.607056,57.201012 
	C429.496521,58.195202 428.520813,58.522816 426.998474,58.513218 
	C424.334961,58.596939 422.075378,59.624981 419.445435,58.274548 
	C418.813721,57.938065 418.582458,57.767796 418.099976,57.251698 
	C416.573975,54.438068 416.729095,51.756100 416.699371,49.107422 
	C416.619293,41.972141 416.831604,34.834171 416.572052,27.701391 
	C416.468292,24.850744 415.616028,22.169048 412.249084,22.029736 
	C408.562805,21.877211 407.553162,24.636351 407.431152,27.706278 
	C407.160950,34.506348 407.393005,41.313248 407.295959,48.116234 
	C407.258301,50.754078 407.564606,53.441002 406.334686,56.387783 
	C406.008850,57.042824 405.840820,57.288750 405.314453,57.810547 
	C400.772400,59.742138 396.549652,59.701599 391.671997,57.705887 
	C388.793976,39.424873 366.560883,37.060497 355.316223,49.848957 
	C354.833130,46.516785 354.290375,43.403225 350.762451,42.301590 
	C346.143188,40.859161 342.128479,43.656250 341.887238,48.624565 
	C341.766815,51.104946 341.877686,53.596558 342.000397,56.489639 
	C337.368927,56.952534 332.620972,57.008884 327.079224,56.868938 
	C322.755981,53.085258 321.151581,47.731121 315.665436,45.909908 
	C306.154510,42.752594 297.097412,43.784229 288.258392,48.142273 
	C284.503723,49.993496 286.108643,53.625080 285.267151,56.788479 
	C278.653625,57.075184 272.273529,57.094242 265.421936,57.112621 
	C262.963654,55.024120 264.405090,53.064877 265.266022,51.168236 
	C267.572601,46.086754 267.695801,40.856697 266.247894,35.600677 
	C264.286133,28.479414 259.279480,24.424938 252.264038,22.915575 
	C240.789261,20.446796 229.143341,21.133358 217.549072,21.617153 
	C213.504257,21.785931 211.389908,24.381800 211.345535,28.594297 
	C211.270309,35.732925 211.392517,42.872025 211.259842,50.009125 
	C211.217422,52.291058 211.582596,54.717728 209.408417,56.826546 
	C204.334457,57.048294 199.615463,57.063148 194.111252,56.877975 
	C191.520355,54.984097 191.858490,52.707813 191.728516,50.587387 
	C191.539871,47.509708 190.803268,44.727745 187.106323,44.653679 
	C183.424835,44.579929 182.489090,47.241062 182.286179,50.375202 
	C182.158798,52.342937 182.435364,54.409039 180.609375,56.570778 
	C175.560043,57.006187 171.072479,57.036366 166.099884,56.997154 
	C165.380188,57.000027 165.145508,57.072285 164.590607,56.968651 
	C163.794235,56.315243 163.438629,55.743458 163.152191,55.148750 
	C157.300690,43.000042 145.736008,40.305958 135.027435,48.607479 
	C131.348129,51.459747 130.218277,51.341709 127.513908,47.418194 
	C126.165154,45.461403 124.680099,44.066113 122.170944,44.839622 
	C119.863792,45.550865 119.500862,47.529133 119.304733,49.613575 
	C119.076096,52.043537 119.685539,54.683277 117.373108,56.875561 
	C113.343391,57.081425 109.629433,57.128208 105.460121,57.251736 
	C101.888840,60.036579 98.285515,59.312325 94.296654,58.696770 
	C93.612457,58.557140 93.342514,58.510960 92.679413,58.385311 
	C88.686188,55.577751 86.933563,51.577145 85.349876,47.605812 
	C82.700073,40.961006 78.878197,34.868851 76.427017,28.142550 
	C76.145859,27.371038 75.711349,26.645109 75.284836,25.930748 
	C71.666862,19.871069 66.430595,19.835371 63.161480,26.024464 
	C58.740654,34.393997 55.038494,43.114464 51.083168,51.709492 
	C50.028118,54.002136 49.077503,56.286255 46.325150,57.601391 
z"/>
<path fill="#77AADB" opacity="1.000000" stroke="none" 
	d="
M209.032867,57.010704 
	C209.032806,47.231892 208.968018,37.430157 209.008560,27.628860 
	C209.031799,22.010839 210.832413,19.666630 216.165955,19.569151 
	C227.451675,19.362877 238.793427,18.656607 250.020905,20.109930 
	C268.004761,22.437817 275.130676,39.972118 264.973969,56.744812 
	C264.505524,57.376736 264.060638,57.641525 263.357300,57.954559 
	C246.703400,60.663105 230.202332,58.924152 213.749130,59.165092 
	C212.244598,59.187119 210.745468,58.896141 209.312988,57.296417 
	C208.960953,56.954342 209.012268,56.987968 209.032867,57.010704 
z"/>
<path fill="#093965" opacity="1.000000" stroke="none" 
	d="
M92.142349,56.804085 
	C92.560127,57.029510 92.731522,56.990807 92.818604,56.979164 
	C97.077225,60.452328 99.231224,64.850288 98.871674,70.718735 
	C101.519859,77.483788 104.257057,83.875702 107.082886,90.634590 
	C107.438652,91.443787 107.508705,91.919029 107.149841,92.691841 
	C104.829956,94.709785 102.854446,96.653885 99.386284,96.109360 
	C94.648132,94.796204 94.123283,90.687996 92.661507,87.263237 
	C88.727180,78.045609 88.736771,78.036583 78.858047,78.043358 
	C72.215454,78.047920 65.572876,78.068863 58.465691,78.147781 
	C56.931709,78.169243 55.862328,78.125389 54.395851,78.147377 
	C51.315140,77.531891 49.674892,78.541496 48.642857,81.123055 
	C47.306038,84.467010 45.756287,87.729477 44.211281,90.985779 
	C41.432957,96.841454 38.859581,97.588890 32.682243,94.111465 
	C31.799116,93.766663 31.492863,93.402054 31.640484,92.385536 
	C32.164776,83.710655 37.651001,77.394775 40.359325,69.996666 
	C41.831924,65.974083 43.977024,62.197697 45.865757,57.938881 
	C49.613163,55.482361 53.460289,54.151257 58.144081,55.433212 
	C60.802235,57.363914 60.518261,59.610447 59.607250,61.893784 
	C58.553329,64.535309 59.549473,65.650398 62.209995,65.687813 
	C67.021149,65.755455 71.832214,65.765221 76.643318,65.683151 
	C79.081184,65.641556 79.855247,64.568710 79.139816,62.158588 
	C78.471436,59.907017 78.076172,57.556446 80.624756,55.523758 
	C84.698692,54.567272 88.378304,54.165958 92.142349,56.804085 
z"/>
<path fill="#0B3B68" opacity="1.000000" stroke="none" 
	d="
M208.993973,57.425014 
	C223.276917,57.077602 237.592987,57.191071 251.908783,57.331142 
	C255.401642,57.365322 258.893646,57.486794 262.742462,57.785469 
	C259.902496,61.059822 255.838974,62.467827 250.888916,63.970970 
	C260.494141,69.302361 263.856293,78.819809 269.452881,86.589272 
	C271.590240,89.556458 272.500366,92.705666 269.018921,95.349426 
	C265.397919,98.099174 261.843872,97.046951 259.401825,93.825882 
	C255.589828,88.797806 252.308868,83.367371 248.796967,78.111382 
	C247.040894,75.483192 245.369186,72.791367 243.486588,70.256630 
	C240.330231,66.006943 228.885361,63.204262 224.149399,65.352608 
	C222.320801,66.182114 222.691071,67.794228 222.678680,69.212753 
	C222.623322,75.544907 222.762741,81.880867 222.598099,88.209366 
	C222.450272,93.891266 220.255920,96.616356 216.223602,96.701492 
	C211.608078,96.798943 209.062241,93.834549 209.015350,87.891495 
	C208.936478,77.893539 209.014801,67.894356 208.993973,57.425014 
z"/>
<path fill="#0B3B68" opacity="1.000000" stroke="none" 
	d="
M426.958405,57.155777 
	C427.804565,56.651463 428.389160,56.370552 429.211792,56.037376 
	C434.697845,55.109360 439.970795,53.140423 445.339386,56.771786 
	C442.560455,60.076889 439.653870,63.051094 436.546326,65.797920 
	C434.260223,67.818581 433.540497,69.064217 436.539093,71.439529 
	C441.733124,75.553947 446.393219,80.338348 451.328674,84.784676 
	C454.507599,87.648514 455.302063,90.948952 452.842194,94.494766 
	C450.824158,97.403755 447.146851,97.029747 443.288208,93.760948 
	C441.516235,92.259872 439.879761,90.598846 437.913452,88.838028 
	C432.929688,89.110031 431.118195,85.913536 429.571442,81.925125 
	C429.493988,81.562233 429.475677,81.510605 429.449036,81.504257 
	C426.730103,80.683266 424.449280,79.316147 422.793274,76.943771 
	C422.066711,75.902916 421.151611,74.840706 419.328552,75.773605 
	C419.000061,80.434303 419.117126,84.882652 418.770111,89.294487 
	C418.505829,92.654945 417.357422,95.697365 413.351654,96.474716 
	C410.065979,97.112343 407.101929,97.185768 405.414459,93.143150 
	C405.156921,91.586365 405.208618,90.202042 405.170227,88.410370 
	C403.471588,85.943932 403.219818,83.477676 402.993073,81.008270 
	C402.433685,74.917023 402.621521,68.813934 402.770264,62.714897 
	C402.814026,60.920876 402.814484,59.042362 404.683868,57.311642 
	C405.030396,56.947327 405.004059,57.004280 404.975403,57.017014 
	C409.228394,53.563057 413.721375,54.085560 418.678711,56.676807 
	C419.052277,57.031380 418.992981,57.005100 418.979126,56.975777 
	C421.315399,61.147968 424.004639,59.289528 426.958405,57.155777 
z"/>
<path fill="#0A3A66" opacity="1.000000" stroke="none" 
	d="
M326.962463,56.977043 
	C328.770081,67.859154 327.647919,78.849533 327.742157,89.801353 
	C327.770691,93.121330 326.412689,96.001656 322.331879,96.331184 
	C317.436768,96.726463 315.474762,93.876045 314.709595,88.948006 
	C311.332886,93.400978 307.393311,96.230057 302.199646,96.809410 
	C297.052521,97.383568 292.271271,96.218452 288.040192,93.251038 
	C282.827698,89.595314 280.548523,84.456764 281.389984,78.166496 
	C282.274323,71.556236 286.440399,68.144386 292.819427,66.765991 
	C299.524719,65.317123 306.273010,64.847313 313.556396,64.867081 
	C314.180817,64.702469 314.342499,64.598938 314.664001,64.255905 
	C314.878906,61.990108 314.933960,59.963821 315.116455,57.521885 
	C318.703094,53.561859 322.462189,54.303123 326.682129,56.683685 
	C327.052887,57.035542 326.987213,57.003834 326.962463,56.977043 
z"/>
<path fill="#78ACDD" opacity="1.000000" stroke="none" 
	d="
M117.031662,57.012398 
	C116.944389,54.554436 116.809074,52.074997 116.723587,49.593845 
	C116.587402,45.641201 117.917534,42.691975 122.263298,42.099915 
	C126.753448,41.488194 129.116806,43.754665 129.894409,48.016415 
	C129.976471,48.466164 130.193832,48.891224 130.363052,49.369102 
	C143.415421,35.946587 164.227859,41.319538 165.705078,56.583824 
	C161.713211,60.480972 157.384857,59.689926 152.617599,57.492126 
	C152.249557,57.111900 151.811676,57.085606 151.592651,57.074142 
	C145.662613,53.687130 139.878830,53.885090 133.745514,56.873299 
	C133.077606,57.047588 132.705734,57.058216 132.055298,57.084934 
	C127.190231,60.230366 122.479614,60.138287 117.316605,57.293846 
	C116.956764,56.943321 117.005981,56.990154 117.031662,57.012398 
z"/>
<path fill="#0D3D6A" opacity="1.000000" stroke="none" 
	d="
M193.978699,57.002720 
	C193.855682,67.608810 193.875641,78.244690 193.590927,88.872414 
	C193.422516,95.158852 189.439911,98.067734 184.244598,96.110802 
	C180.333633,94.637665 180.173859,91.185287 180.149429,87.838997 
	C180.076614,77.863518 180.127991,67.887131 180.089233,57.443554 
	C180.047623,56.976009 180.011566,57.030239 179.979019,57.029507 
	C184.228149,53.563152 188.721558,54.087048 193.679871,56.673599 
	C194.054077,57.027412 193.993561,57.029083 193.978699,57.002720 
z"/>
<path fill="#073763" opacity="1.000000" stroke="none" 
	d="
M116.962570,57.416206 
	C121.584915,57.751419 126.244774,57.203011 131.333496,57.185028 
	C131.214462,59.485573 130.652206,61.870117 130.134583,64.628281 
	C131.714478,70.683708 130.991837,76.425789 130.400970,82.578156 
	C130.109543,84.639702 130.020370,86.280830 130.004700,87.922653 
	C129.933472,95.387230 127.161964,97.577911 119.465958,95.857368 
	C116.746063,95.397949 115.795143,94.074722 116.570541,91.362709 
	C116.834656,79.964523 116.901512,68.926804 116.962570,57.416206 
z"/>
<path fill="#093965" opacity="1.000000" stroke="none" 
	d="
M342.044312,56.971519 
	C346.002350,57.104195 349.991882,57.160503 353.973785,57.365238 
	C355.065704,57.421383 357.211487,56.822948 356.539215,59.117088 
	C353.515778,69.434578 355.753357,79.975426 355.021973,90.382095 
	C354.725525,94.600700 351.817871,97.183380 347.736786,96.609398 
	C343.918121,96.072311 341.905029,93.896782 341.943298,89.836174 
	C342.043823,79.175888 342.020508,68.514427 342.081696,57.374813 
	C342.116852,56.896187 342.072937,56.951088 342.044312,56.971519 
z"/>
<path fill="#093965" opacity="1.000000" stroke="none" 
	d="
M391.538239,61.609665 
	C391.246216,70.957260 391.238098,79.910927 391.158630,88.863953 
	C391.110077,94.334991 388.874847,96.959145 384.544891,96.818199 
	C380.142700,96.674896 378.081299,94.210312 378.008698,88.695549 
	C377.882111,79.080109 377.962128,69.460480 377.704498,59.849339 
	C377.645599,57.652996 378.424927,57.311279 380.183533,57.316898 
	C383.499573,57.327499 386.815826,57.266418 390.589294,57.134556 
	C391.046600,57.033978 390.994415,56.998566 390.976257,56.972813 
	C392.128967,58.195404 392.617615,59.577049 391.538239,61.609665 
z"/>
<path fill="#093965" opacity="1.000000" stroke="none" 
	d="
M152.194122,57.521412 
	C156.413330,57.148426 160.577087,57.184948 165.243439,57.106426 
	C165.746017,56.991383 165.671143,56.977764 165.643005,56.952766 
	C166.590775,68.233170 165.971313,79.559196 165.997192,90.875229 
	C166.006760,95.070015 163.103607,96.870560 159.396927,96.659134 
	C155.439850,96.433418 152.992279,94.056656 152.978912,89.807999 
	C152.954269,81.978638 152.935089,74.148994 152.979492,66.319832 
	C152.995575,63.484318 152.901855,60.679203 152.194122,57.521412 
z"/>
<path fill="#77AADB" opacity="1.000000" stroke="none" 
	d="
M327.038696,56.657280 
	C323.407745,57.113667 319.762573,57.191788 315.680664,57.188072 
	C314.864868,57.088875 314.485901,57.071510 313.822723,57.045311 
	C309.936584,54.435211 305.931335,54.006912 301.667297,54.736160 
	C297.916962,55.377548 294.061768,55.412277 290.182922,56.970852 
	C288.519653,58.107574 287.061859,58.213757 285.298706,57.250652 
	C281.271149,51.643333 282.034637,48.543552 287.870117,45.685108 
	C295.584412,41.906311 303.794922,41.014603 312.133087,42.309673 
	C320.069794,43.542385 325.334503,48.133152 327.038696,56.657280 
z"/>
<path fill="#78ABDC" opacity="1.000000" stroke="none" 
	d="
M391.650635,62.017960 
	C391.166748,60.600407 391.049103,59.196945 390.944763,57.370270 
	C395.340118,56.989193 399.722168,57.031330 404.567291,57.010395 
	C405.107941,66.991478 405.185516,77.035622 405.171631,87.541397 
	C399.866364,84.975861 400.676971,78.855957 398.211334,74.397202 
	C396.660400,71.592506 396.109619,68.214020 395.252991,65.054214 
	C394.775208,63.291889 394.075043,61.995079 391.650635,62.017960 
z"/>
<path fill="#78ACDD" opacity="1.000000" stroke="none" 
	d="
M99.082932,70.904572 
	C96.060020,66.958641 94.445877,62.324173 92.823364,57.349117 
	C96.634445,57.036777 100.363213,57.106033 104.548370,57.251884 
	C105.133018,62.632042 103.320778,67.120850 99.082932,70.904572 
z"/>
<path fill="#194A77" opacity="1.000000" stroke="none" 
	d="
M322.012817,114.887810 
	C323.233826,116.439034 323.397278,118.319771 325.597626,119.440636 
	C325.769836,116.005592 325.928741,112.835762 326.087646,109.665932 
	C326.533722,109.647369 326.979767,109.628807 327.425842,109.610245 
	C328.216797,114.291580 328.169800,119.126259 327.470154,123.813347 
	C327.180695,125.752457 325.444244,124.494064 324.724243,123.339622 
	C323.099426,120.734497 321.567566,118.071426 319.585144,114.737831 
	C317.948456,118.481079 319.523773,121.807945 317.535156,124.577179 
	C315.987518,119.923210 316.311737,115.121246 316.799774,110.396416 
	C316.986572,108.587708 318.478577,109.197647 319.259613,110.308983 
	C320.212219,111.664459 320.985443,113.146011 322.012817,114.887810 
z"/>
<path fill="#194A77" opacity="1.000000" stroke="none" 
	d="
M167.189178,122.275314 
	C167.171646,119.369133 167.029648,116.872551 167.211243,114.399742 
	C167.343948,112.592644 166.120575,109.924004 168.805161,109.287796 
	C171.523727,108.643532 174.613434,108.656990 176.699188,111.009735 
	C178.531876,113.076988 177.924988,115.269867 176.000885,117.150459 
	C172.916809,120.164764 178.463104,121.793518 177.023560,124.721764 
	C174.920166,124.983322 174.892365,122.802666 173.956009,121.699043 
	C173.047714,120.628479 172.880875,118.550270 170.967743,118.850342 
	C168.919968,119.171562 169.564285,121.121002 169.302139,122.499504 
	C169.148026,123.309891 169.605850,124.750885 167.964554,124.355759 
	C167.598785,124.267700 167.451370,123.272598 167.189178,122.275314 
z"/>
<path fill="#194A77" opacity="1.000000" stroke="none" 
	d="
M257.596252,124.767693 
	C252.109634,120.259979 254.556946,114.780670 254.202377,108.770950 
	C256.947418,110.468208 256.173828,112.247589 256.308441,113.685776 
	C256.508728,115.825554 256.454742,117.993599 256.733154,120.120255 
	C256.972260,121.946327 258.023224,123.196754 260.084869,123.025322 
	C262.045105,122.862328 263.042023,121.688622 263.138123,119.761528 
	C263.307556,116.364304 263.443756,112.965416 264.385651,109.583740 
	C265.615479,113.910591 266.257294,118.298325 264.429932,122.549698 
	C263.251953,125.290321 260.569214,125.319366 257.596252,124.767693 
z"/>
<path fill="#194A77" opacity="1.000000" stroke="none" 
	d="
M271.977661,119.672043 
	C271.536987,121.542480 272.446167,123.333466 270.282318,125.209518 
	C268.887756,119.992371 268.891296,115.047264 269.980682,110.511940 
	C270.639374,107.769669 274.203064,109.070099 276.505829,109.610062 
	C279.168304,110.234360 281.252045,112.972252 279.671021,114.629715 
	C276.212250,118.255676 278.435547,121.248299 279.957306,124.923286 
	C276.877594,124.371521 276.870300,121.952477 275.691437,120.607338 
	C274.730316,119.510658 274.177765,117.192581 271.977661,119.672043 
z"/>
<path fill="#194A77" opacity="1.000000" stroke="none" 
	d="
M300.426575,120.202637 
	C300.180817,119.164932 300.017822,118.506546 300.010590,117.846466 
	C299.948608,112.165016 302.734863,108.743813 307.158234,109.029938 
	C311.209930,109.292030 313.689453,113.131340 313.117706,118.369484 
	C312.767059,121.581772 311.454987,124.262001 308.016022,124.953270 
	C304.390869,125.681961 301.922760,123.974655 300.426575,120.202637 
z"/>
<path fill="#194A77" opacity="1.000000" stroke="none" 
	d="
M339.520386,109.217392 
	C340.782623,109.693321 341.839966,109.915298 341.833618,111.211655 
	C334.792084,110.999290 331.436310,114.932014 334.050354,120.299782 
	C334.939850,122.126289 336.300751,123.137138 338.354736,123.060829 
	C339.336151,123.024368 340.323853,122.970833 340.796600,121.802818 
	C341.775146,119.385307 339.503876,118.876228 338.081604,117.606781 
	C340.191681,116.585884 342.212250,115.794434 342.837189,118.534218 
	C343.422791,121.101883 343.544281,124.105057 339.902252,124.867844 
	C336.003723,125.684326 333.058807,124.419952 331.603912,120.468948 
	C330.054199,116.260521 331.667603,111.263649 335.268982,109.723183 
	C336.432220,109.225609 337.846283,109.314445 339.520386,109.217392 
z"/>
<path fill="#0D3D6A" opacity="1.000000" stroke="none" 
	d="
M290.413635,57.206921 
	C296.481781,51.104496 309.018250,50.577236 313.520508,56.644382 
	C305.987305,57.081203 298.436066,57.125935 290.413635,57.206921 
z"/>
<path fill="#194A77" opacity="1.000000" stroke="none" 
	d="
M133.786819,121.588898 
	C136.040543,118.354111 135.825134,115.058296 136.874649,112.167488 
	C137.266190,111.089035 137.234589,109.541428 138.547363,109.435852 
	C140.068695,109.313515 139.878326,110.966125 140.284790,111.988976 
	C141.128586,114.112381 140.940216,116.593086 142.720596,118.707626 
	C144.987106,116.007751 143.704025,112.052315 146.461792,109.599472 
	C146.829483,113.724426 145.683517,117.632141 144.375443,121.788651 
	C143.690094,122.358589 143.237076,122.503090 142.419159,122.237579 
	C140.065567,120.055061 139.984192,117.120728 138.633224,114.530502 
	C136.841705,117.038818 137.242249,119.949722 135.921631,122.684654 
	C134.660034,123.756645 133.961792,123.353844 133.786819,121.588898 
z"/>
<path fill="#194A77" opacity="1.000000" stroke="none" 
	d="
M350.857208,111.090652 
	C348.473969,112.062630 348.013214,113.343643 349.828461,114.862442 
	C350.571045,115.483765 351.577728,115.798851 352.481262,116.216522 
	C354.946960,117.356323 356.982666,118.938995 355.823456,121.954048 
	C354.564484,125.228424 351.722290,125.504601 348.726349,124.757271 
	C347.617065,124.480553 346.488342,124.000961 346.274841,122.602814 
	C346.804535,122.040550 347.376984,122.118317 348.039185,122.371887 
	C350.109283,123.164536 352.675323,124.087837 353.636322,121.422638 
	C354.547607,118.895332 351.670471,118.380257 350.015961,117.495987 
	C347.299530,116.044151 344.698395,114.251083 347.041504,111.006607 
	C349.273529,107.916000 352.322418,108.538719 355.508270,110.739235 
	C353.802795,112.703934 352.476959,110.553871 350.857208,111.090652 
z"/>
<path fill="#194A77" opacity="1.000000" stroke="none" 
	d="
M294.978668,109.419594 
	C296.324097,110.522842 298.104492,111.734703 294.748016,111.294029 
	C293.125641,111.081032 291.115448,110.431946 290.462067,112.508270 
	C289.654938,115.073174 292.269226,115.218925 293.709625,116.009628 
	C295.778442,117.145340 297.994324,118.093323 297.781281,120.986305 
	C297.649780,122.771782 296.708649,124.270714 294.969879,124.714806 
	C292.199036,125.422493 289.415466,125.569374 287.502625,122.648529 
	C287.900574,122.383774 288.185211,122.039017 288.392029,122.080688 
	C290.673859,122.540276 293.599701,124.667061 294.951691,121.619766 
	C296.296234,118.589226 292.785370,118.238777 290.906342,117.216393 
	C288.826813,116.084938 287.302521,114.526077 288.130676,112.061661 
	C289.194977,108.894516 291.821564,108.680489 294.978668,109.419594 
z"/>
<path fill="#194A77" opacity="1.000000" stroke="none" 
	d="
M217.307281,111.749115 
	C213.172089,117.289467 219.596237,120.111214 219.841385,124.612816 
	C217.395447,124.741730 217.265244,122.490196 216.221710,121.324722 
	C215.222183,120.208405 215.265366,117.634186 213.008743,118.291740 
	C211.160156,118.830414 211.156876,120.807236 211.124161,122.509193 
	C211.108810,123.306351 211.144836,124.187263 209.446960,124.873917 
	C208.628754,119.648170 209.025192,114.652069 209.137802,108.567253 
	C212.032516,110.948143 210.517166,113.407578 211.617905,115.335884 
	C213.653091,114.745255 214.374557,112.685715 216.076675,111.262939 
	C216.680084,111.120132 217.011337,111.182434 217.307281,111.749115 
z"/>
<path fill="#194A77" opacity="1.000000" stroke="none" 
	d="
M133.954529,57.098465 
	C138.440308,51.143894 145.997650,50.859863 151.231705,56.718330 
	C145.735611,57.095112 140.097595,57.127541 133.954529,57.098465 
z"/>
<path fill="#0B3B68" opacity="1.000000" stroke="none" 
	d="
M362.551270,57.134647 
	C361.311646,57.034168 360.210754,57.224789 359.758484,56.770161 
	C359.020325,56.028187 359.921783,55.359215 360.509827,54.806759 
	C364.393707,51.157906 372.307953,52.026360 376.028870,57.135979 
	C371.367584,57.135979 367.174408,57.135979 362.551270,57.134647 
z"/>
<path fill="#0D3D6A" opacity="1.000000" stroke="none" 
	d="
M152.193542,124.471458 
	C150.384644,125.012321 149.985672,124.093353 149.992096,122.737022 
	C150.003906,120.243591 149.977371,117.750015 149.979294,115.256508 
	C149.984482,108.530861 151.830200,107.453842 158.589676,110.224396 
	C157.160706,112.788147 151.963806,108.413734 152.071823,113.728683 
	C152.150925,117.621147 155.968491,114.781685 157.606369,116.914673 
	C154.430573,117.586655 150.481110,117.723869 152.330627,122.959229 
	C152.467163,123.589226 152.437958,123.858253 152.193542,124.471458 
z"/>
<path fill="#194A77" opacity="1.000000" stroke="none" 
	d="
M242.733154,109.827339 
	C247.912628,109.030891 250.424210,110.986198 250.950089,115.784912 
	C251.576797,121.504044 249.136612,124.256073 242.374420,124.936615 
	C241.680115,124.478073 241.476074,124.050301 241.435028,123.214706 
	C241.563995,122.711800 241.607681,122.524101 241.725677,122.423828 
	C247.372238,117.624840 247.429962,116.883881 242.481842,111.171234 
	C242.460480,110.597542 242.515747,110.369034 242.733154,109.827339 
z"/>
<path fill="#194A77" opacity="1.000000" stroke="none" 
	d="
M235.337067,112.469757 
	C232.879730,116.397987 231.852478,120.426041 231.056015,124.810814 
	C230.748367,119.230835 227.900894,114.673218 225.411957,108.991112 
	C229.542114,110.385490 228.927216,114.150406 231.397400,115.823441 
	C232.373611,114.028313 232.924911,111.905693 234.294739,110.772667 
	C236.057480,109.314644 235.901199,110.911316 235.337067,112.469757 
z"/>
<path fill="#78ACDD" opacity="1.000000" stroke="none" 
	d="
M130.497955,82.813240 
	C130.123566,77.308365 130.082260,71.618484 130.110077,65.465240 
	C133.559677,70.760361 132.328094,76.689384 130.497955,82.813240 
z"/>
<path fill="#194A77" opacity="1.000000" stroke="none" 
	d="
M204.300232,119.775436 
	C204.824860,121.564644 206.029175,123.934235 203.839905,124.582260 
	C202.292297,125.040375 201.515686,122.645950 200.668961,121.307343 
	C199.165619,118.930695 197.761627,116.491219 196.159576,113.237976 
	C196.157166,112.272812 196.311279,112.147690 196.757812,111.966583 
	C198.908875,114.665398 200.767487,117.420181 202.866028,120.073669 
	C203.367950,119.875069 203.629944,119.777786 204.300232,119.775436 
z"/>
<path fill="#0D3D6A" opacity="1.000000" stroke="none" 
	d="
M195.709686,112.856125 
	C195.836548,113.119751 195.809036,113.322350 195.818848,113.421066 
	C195.828659,117.157898 195.828659,120.796013 195.828659,124.434135 
	C195.323395,124.422485 194.818130,124.410835 194.312866,124.399185 
	C193.280197,120.002541 193.506882,115.433945 194.032928,111.057594 
	C194.430237,107.752296 195.952469,109.820244 196.955261,111.572281 
	C196.878479,112.161873 196.682755,112.392822 196.279846,112.737976 
	C195.925354,112.779152 195.754089,112.685829 195.709686,112.856125 
z"/>
<path fill="#0D3D6A" opacity="1.000000" stroke="none" 
	d="
M242.236023,122.536095 
	C242.054276,123.283859 242.035828,123.734802 241.998627,124.523720 
	C236.120758,119.712555 236.188049,113.464981 242.519318,109.597984 
	C242.909683,109.752785 242.924088,109.991402 242.964432,110.587669 
	C243.084320,114.725189 242.109283,118.449127 242.236023,122.536095 
z"/>
<path fill="#0D3D6A" opacity="1.000000" stroke="none" 
	d="
M188.127594,119.744026 
	C184.089294,119.568222 181.003265,120.193604 180.080231,125.117447 
	C179.416489,121.407478 181.114136,118.653168 182.080475,115.381874 
	C182.418396,114.923454 182.614975,114.803764 183.147995,114.761032 
	C184.359177,115.546883 185.048859,116.549927 186.647141,116.756989 
	C187.356766,117.172470 187.652710,117.530754 187.979004,118.294434 
	C188.178040,118.855804 188.270874,119.076080 188.127594,119.744026 
z"/>
<path fill="#194A77" opacity="1.000000" stroke="none" 
	d="
M183.950195,115.361526 
	C183.464569,115.114464 183.215820,115.103813 182.594437,115.068146 
	C182.984756,113.024765 182.572021,109.599731 185.096619,109.504326 
	C187.763229,109.403534 187.155441,112.992737 188.195267,114.848274 
	C188.509018,115.408150 188.679214,116.048485 189.015137,117.036972 
	C189.115143,117.421982 188.652588,117.507896 188.652588,117.507896 
	C188.652588,117.507896 188.524857,117.960526 188.740494,118.053299 
	C188.536255,118.227264 188.116364,118.308456 187.375763,118.371841 
	C186.426712,117.094398 184.905716,116.763626 183.950195,115.361526 
z"/>
<path fill="#194A77" opacity="1.000000" stroke="none" 
	d="
M132.506470,121.241608 
	C131.340347,117.241920 130.151703,113.485313 130.296417,108.191864 
	C133.486038,112.449638 133.031189,116.511864 134.024811,120.527206 
	C134.060928,120.938255 133.940659,121.064186 133.880585,121.127190 
	C133.491806,121.439934 133.124710,121.526222 132.506470,121.241608 
z"/>
<path fill="#78ACDD" opacity="1.000000" stroke="none" 
	d="
M116.480194,91.142899 
	C117.021370,92.594650 117.491753,94.084930 118.923843,95.491386 
	C115.426414,96.139961 114.673798,94.976616 116.480194,91.142899 
z"/>
<path fill="#194A77" opacity="1.000000" stroke="none" 
	d="
M188.734863,118.273689 
	C189.671539,119.783058 191.158844,121.880081 190.819214,124.800735 
	C188.394806,124.188393 188.849121,122.090248 187.964569,120.544609 
	C188.050827,119.812386 188.210190,119.433083 188.734863,118.273689 
z"/>
<path fill="#0D3D6A" opacity="1.000000" stroke="none" 
	d="
M132.276276,121.343643 
	C132.635345,121.054878 132.976944,121.075554 133.569519,121.143211 
	C134.287399,121.742455 134.754318,122.294716 135.488373,122.935944 
	C135.690598,123.838020 135.596893,124.632668 134.289368,124.828430 
	C133.815491,124.699722 133.641724,124.583046 133.257294,124.233566 
	C132.784027,123.218201 132.521423,122.435631 132.276276,121.343643 
z"/>
<path fill="#0B3B68" opacity="1.000000" stroke="none" 
	d="
M141.985779,122.314102 
	C142.552582,122.015678 142.989502,122.011208 143.754059,122.014145 
	C143.724289,123.015175 144.788162,124.957390 142.535034,124.672478 
	C141.457489,124.536217 140.977966,123.663918 141.985779,122.314102 
z"/>
<path fill="#194A77" opacity="1.000000" stroke="none" 
	d="
M216.570160,111.364037 
	C216.917877,110.309349 217.590042,108.987663 218.481400,109.590462 
	C219.632523,110.368927 218.309296,111.197624 217.540680,112.092560 
	C217.111816,112.059082 216.951660,111.864670 216.570160,111.364037 
z"/>
<path fill="#073763" opacity="1.000000" stroke="none" 
	d="
M203.385834,109.866425 
	C204.814789,109.477654 204.854126,110.235321 204.578201,111.105637 
	C204.505142,111.336105 204.128113,111.633286 203.901779,111.624153 
	C202.868408,111.582443 203.319046,110.731606 203.385834,109.866425 
z"/>
<path fill="#78ACDD" opacity="1.000000" stroke="none" 
	d="
M107.136414,92.906403 
	C106.940338,92.523758 106.990494,92.086456 107.106079,91.325348 
	C108.305489,91.496910 108.964798,92.046432 107.136414,92.906403 
z"/>
<path fill="#73A7D9" opacity="1.000000" stroke="none" 
	d="
M189.088379,117.515808 
	C189.100159,117.493591 188.871384,117.649132 188.847061,117.777451 
	C188.822739,117.905762 188.676834,118.140335 188.816483,118.143204 
	C189.050262,117.981667 189.077957,117.799667 189.077179,117.511024 
	C189.115143,117.421982 189.076599,117.538025 189.088379,117.515808 
z"/>
<path fill="#0D3D6A" opacity="1.000000" stroke="none" 
	d="
M158.537827,123.800819 
	C158.213501,125.468887 157.144241,124.884201 156.124939,124.554581 
	C156.313431,124.188606 156.501923,123.822632 157.035400,123.513855 
	C157.651047,123.576492 157.921707,123.581940 158.537827,123.800819 
z"/>
<path fill="#73A7D9" opacity="1.000000" stroke="none" 
	d="
M314.674866,64.132263 
	C314.935974,64.376961 314.824799,64.644814 314.254700,64.812973 
	C314.166595,64.600533 314.335510,64.414574 314.674866,64.132263 
z"/>
<path fill="#194A77" opacity="1.000000" stroke="none" 
	d="
M152.338135,124.804016 
	C152.056580,124.564034 152.134796,124.312431 152.354691,123.690521 
	C153.215103,123.721725 153.717102,124.152931 152.338135,124.804016 
z"/>
<path fill="#194A77" opacity="1.000000" stroke="none" 
	d="
M133.080353,124.247810 
	C133.290298,124.139435 133.511002,124.308136 133.848999,124.661636 
	C133.989243,124.816391 133.490601,124.821831 133.490601,124.821831 
	C133.490601,124.821831 133.114090,124.494850 133.080353,124.247810 
z"/>
<path fill="#194A77" opacity="1.000000" stroke="none" 
	d="
M158.828064,123.761673 
	C158.629501,123.954056 158.375717,123.893860 157.751144,123.702347 
	C157.844528,123.550385 158.308670,123.529739 158.828064,123.761673 
z"/>
<path fill="#073763" opacity="1.000000" stroke="none" 
	d="
M204.642944,119.454430 
	C204.441681,119.890915 204.174805,119.911469 203.506958,119.952194 
	C203.301041,119.195663 203.293350,118.099495 204.642944,119.454430 
z"/>
<path fill="#73A7D9" opacity="1.000000" stroke="none" 
	d="
M445.881012,57.161057 
	C440.355865,57.203583 435.140900,57.865211 429.711243,56.383873 
	C433.421173,52.242249 437.415100,48.522972 441.356537,44.748898 
	C444.378174,41.855511 447.641602,40.724491 450.887695,44.072018 
	C454.147888,47.434093 452.895020,50.672188 449.873749,53.561653 
	C448.918518,54.475227 448.014008,55.441883 446.975281,56.713547 
	C446.645782,57.069210 446.427277,57.095570 445.881012,57.161057 
z"/>
<path fill="#77ABDC" opacity="1.000000" stroke="none" 
	d="
M433.389404,98.487038 
	C437.905701,102.954865 436.809601,109.125771 437.823761,114.731888 
	C438.009033,115.756004 437.183136,116.724678 435.956207,116.491531 
	C434.463226,116.207817 433.442688,114.841248 433.644745,113.607231 
	C434.463837,108.604462 432.173584,103.734329 433.389404,98.487038 
z"/>
<path fill="#77ABDC" opacity="1.000000" stroke="none" 
	d="
M429.372437,82.020592 
	C432.067657,83.748199 434.641357,85.934158 437.430054,88.392914 
	C435.534332,89.523643 434.830414,91.772217 433.393585,93.360687 
	C429.579559,90.449287 428.242004,86.902130 429.372437,82.020592 
z"/>
<path fill="#77ABDC" opacity="1.000000" stroke="none" 
	d="
M419.410522,76.084869 
	C419.082611,74.902008 419.082611,73.802361 419.082611,71.805847 
	C422.828278,75.230888 425.957947,78.092644 429.255005,81.226158 
	C424.096863,83.532410 423.071564,77.753639 419.410522,76.084869 
z"/>
<path fill="#77ABDC" opacity="1.000000" stroke="none" 
	d="
M435.203979,123.144653 
	C435.876801,121.217842 436.743469,121.398788 437.498779,122.706703 
	C437.988953,123.555450 438.120789,124.723022 436.988983,125.105644 
	C435.760345,125.521011 435.467987,124.368767 435.203979,123.144653 
z"/>
<path fill="#77AADB" opacity="1.000000" stroke="none" 
	d="
M92.302826,56.747971 
	C88.767647,57.109425 84.975166,57.189342 80.740295,57.190247 
	C80.091064,57.231625 79.884232,57.352024 79.324486,57.529800 
	C75.153923,56.213505 74.786133,52.355831 73.126915,49.436954 
	C71.576370,46.709244 70.694931,43.676907 69.374237,40.774338 
	C66.342293,46.253796 65.218719,52.632744 60.373764,57.362053 
	C59.803993,57.492237 59.564568,57.483608 59.016434,57.291016 
	C54.730030,57.220516 50.752338,57.333988 46.343681,57.507481 
	C45.912716,57.567505 45.958748,57.613293 45.963978,57.646099 
	C50.979374,46.860989 56.041035,36.066460 60.970604,25.211943 
	C62.603661,21.616081 64.844040,19.066311 69.055824,18.952656 
	C73.616127,18.829597 75.819336,21.806143 77.518860,25.439846 
	C82.356941,35.783978 87.202759,46.124489 92.302826,56.747971 
z"/>
<path fill="#77ABDC" opacity="1.000000" stroke="none" 
	d="
M31.546188,92.101440 
	C31.924559,92.413284 32.072983,92.825653 32.322510,93.550980 
	C31.470905,93.698784 30.144409,93.782677 31.546188,92.101440 
z"/>
<path fill="#73A7D9" opacity="1.000000" stroke="none" 
	d="
M419.013489,56.562286 
	C414.655609,57.104946 410.258942,57.178513 405.404480,57.140915 
	C405.014893,47.075184 405.070892,37.120514 405.157837,27.166117 
	C405.188629,23.645103 405.934570,20.542397 409.899689,19.358412 
	C414.967163,17.845257 418.830444,20.844337 418.909515,26.717182 
	C419.041412,36.507702 418.963989,46.301037 419.013489,56.562286 
z"/>
<path fill="#73A7D9" opacity="1.000000" stroke="none" 
	d="
M193.986969,56.575150 
	C189.657532,57.097660 185.260971,57.167912 180.405457,57.133469 
	C179.983871,54.541656 179.950119,52.051003 180.073425,49.568150 
	C180.332977,44.341789 182.364563,42.076298 186.712677,42.016132 
	C191.210297,41.953899 193.698364,44.591671 193.857040,49.654625 
	C193.924576,51.809254 193.901688,53.966717 193.986969,56.575150 
z"/>
<path fill="#73A7D9" opacity="1.000000" stroke="none" 
	d="
M194.542908,22.712597 
	C195.462570,27.544538 193.638824,30.551826 189.370316,31.836487 
	C185.177139,33.098473 180.538864,31.072031 179.399994,27.489323 
	C178.283691,23.977659 179.109711,20.913162 182.485001,18.930826 
	C186.606232,16.510380 191.202408,17.849777 194.542908,22.712597 
z"/>
<path fill="#73A7D9" opacity="1.000000" stroke="none" 
	d="
M426.759796,56.992996 
	C425.884216,59.925381 424.466034,61.486267 418.847961,65.881020 
	C418.847961,62.793713 418.847961,60.303715 418.906616,57.380089 
	C421.410065,56.982170 423.854828,57.017887 426.759796,56.992996 
z"/>
<path fill="#0A3A66" opacity="1.000000" stroke="none" 
	d="
M237.790588,54.711979 
	C232.711151,54.385925 226.774902,56.690773 223.829163,53.783218 
	C220.668762,50.663815 222.863113,44.636681 222.774170,39.891354 
	C222.594223,30.288851 222.720383,30.302891 232.561401,30.278814 
	C237.381470,30.267023 242.208084,30.162558 246.974136,31.029388 
	C253.253082,32.171379 256.041901,35.589218 256.132446,42.106049 
	C256.224670,48.742817 253.260040,52.835434 247.181503,53.950951 
	C244.260910,54.486931 241.239838,54.475513 237.790588,54.711979 
z"/>
<path fill="#73A7D9" opacity="1.000000" stroke="none" 
	d="
M78.690758,56.776993 
	C79.328217,57.041691 79.522217,57.050953 80.007065,57.085724 
	C79.893707,60.106323 81.736679,62.412247 82.763191,64.952469 
	C83.556145,66.914719 83.064629,67.720215 80.956177,67.713028 
	C73.188965,67.686569 65.421509,67.676323 57.654366,67.709381 
	C55.010719,67.720634 55.069008,66.483231 55.951488,64.577576 
	C56.980541,62.355415 57.874729,60.070805 58.767578,57.460167 
	C58.876560,57.094433 59.045399,57.081814 59.468147,57.063751 
	C65.798080,53.460625 71.988136,53.798561 78.690758,56.776993 
z"/>
<path fill="#77ABDC" opacity="1.000000" stroke="none" 
	d="
M294.176758,80.665588 
	C293.854401,76.049812 296.070740,73.930061 299.976685,72.900414 
	C303.253387,72.036652 306.544983,71.996422 309.868073,72.005867 
	C315.180054,72.020958 316.120392,73.337326 314.567505,78.559036 
	C313.013214,83.785416 308.963440,87.195358 303.738922,87.307144 
	C299.238007,87.403442 295.576416,85.898010 294.176758,80.665588 
z"/>
<path fill="#73A7D9" opacity="1.000000" stroke="none" 
	d="
M175.149231,113.071945 
	C174.974915,116.815598 172.610657,117.087051 170.329681,116.195435 
	C168.454788,115.462563 168.754990,112.876495 169.646255,111.948608 
	C171.321915,110.204063 173.469482,110.645279 175.149231,113.071945 
z"/>
<path fill="#73A7D9" opacity="1.000000" stroke="none" 
	d="
M271.842712,113.799759 
	C271.798157,110.905426 273.414185,110.843063 275.202332,111.162720 
	C276.595764,111.411804 277.758484,112.041855 277.737488,113.696732 
	C277.717224,115.294922 276.605713,115.999527 275.236176,116.344765 
	C273.388763,116.810440 271.883179,116.640778 271.842712,113.799759 
z"/>
<path fill="#77AADB" opacity="1.000000" stroke="none" 
	d="
M304.059509,112.033142 
	C307.095703,110.304962 309.237793,110.897041 310.345612,113.811562 
	C311.527618,116.921059 311.673584,120.239479 308.757874,122.386475 
	C306.633026,123.951096 304.265167,123.288811 303.004669,120.672462 
	C301.601379,117.759758 301.802643,114.921913 304.059509,112.033142 
z"/>
<path fill="#77AADB" opacity="1.000000" stroke="none" 
	d="
M242.472855,122.866806 
	C239.079956,118.930626 238.662003,115.101662 242.694458,111.168152 
	C247.429749,110.826180 248.873886,113.599106 248.735504,117.370735 
	C248.605743,120.907623 247.203781,123.582855 242.472855,122.866806 
z"/>
<path fill="#194A77" opacity="1.000000" stroke="none" 
	d="
M195.903687,113.060165 
	C195.836548,113.119751 195.625168,112.800079 195.625168,112.800079 
	C195.625168,112.800079 195.945160,112.739540 196.020889,112.806015 
	C196.096619,112.872482 195.970810,113.000572 195.903687,113.060165 
z"/>
<path fill="#73A7D9" opacity="1.000000" stroke="none" 
	d="
M183.622162,115.510681 
	C184.132706,114.430023 184.552109,113.734924 184.971512,113.039825 
	C186.641235,114.121704 186.373230,116.069366 187.034485,117.982529 
	C185.487732,118.097748 182.837616,119.393982 183.622162,115.510681 
z"/>
<path fill="#0A3A66" opacity="1.000000" stroke="none" 
	d="
M78.990158,56.700260 
	C72.989334,57.054249 66.844437,57.076069 60.210800,57.078094 
	C62.724651,50.117214 65.727249,43.176125 69.213631,35.116676 
	C72.771935,42.967106 75.809013,49.667603 78.990158,56.700260 
z"/>
</svg>