<?xml version="1.0" encoding="UTF-8" standalone="no"?>
<!-- Created with Inkscape (http://www.inkscape.org/) -->

<svg
   xmlns:dc="http://purl.org/dc/elements/1.1/"
   xmlns:cc="http://creativecommons.org/ns#"
   xmlns:rdf="http://www.w3.org/1999/02/22-rdf-syntax-ns#"
   xmlns:svg="http://www.w3.org/2000/svg"
   xmlns="http://www.w3.org/2000/svg"
   xmlns:sodipodi="http://sodipodi.sourceforge.net/DTD/sodipodi-0.dtd"
   xmlns:inkscape="http://www.inkscape.org/namespaces/inkscape"
   width="128"
   height="128"
   viewBox="0 0 33.866666 33.866668"
   version="1.1"
   id="svg8"
   inkscape:version="0.92.0 r15299"
   sodipodi:docname="logo3.svg">
  <defs
     id="defs2" />
  <sodipodi:namedview
     id="base"
     pagecolor="#ffffff"
     bordercolor="#ff0f0f"
     borderopacity="1"
     inkscape:pageopacity="0.0"
     inkscape:pageshadow="2"
     inkscape:zoom="2.8"
     inkscape:cx="102.85373"
     inkscape:cy="116.93874"
     inkscape:document-units="px"
     inkscape:current-layer="layer1"
     showgrid="false"
     units="px"
     borderlayer="true"
     inkscape:showpageshadow="false"
     inkscape:window-width="1920"
     inkscape:window-height="1017"
     inkscape:window-x="1432"
     inkscape:window-y="-8"
     inkscape:window-maximized="1">
    <inkscape:grid
       type="xygrid"
       id="grid4489" />
  </sodipodi:namedview>
  <metadata
     id="metadata5">
    <rdf:RDF>
      <cc:Work
         rdf:about="">
        <dc:format>image/svg+xml</dc:format>
        <dc:type
           rdf:resource="http://purl.org/dc/dcmitype/StillImage" />
        <dc:title></dc:title>
      </cc:Work>
    </rdf:RDF>
  </metadata>
  <g
     inkscape:label="Capa 1"
     inkscape:groupmode="layer"
     id="layer1"
     transform="translate(0,-263.13332)">
    <rect
       style="fill:#78acdd;fill-opacity:1;stroke-width:0.91496295"
       id="rect4491"
       width="33.866669"
       height="33.866669"
       x="-8.5058593e-007"
       y="263.13333"
       rx="0"
       ry="0" />
    <g
       id="g4740"
       transform="matrix(0.12226499,0,0,0.12226499,-15.229359,237.61912)">
      <path
         id="path4493"
         d="M 408.31421,135.67667 C 301.64578,136 195.29155,136 88.468658,136 c -2.174453,-1.34232 -2.708778,-3.17305 -2.697357,-5.25229 0.0341,-6.20971 -0.800895,-12.43069 2.976525,-18.19101 1.912948,-2.9171 0.820984,-6.78057 0.966247,-10.22144 0.273209,-6.471185 0.770485,-7.046121 7.32103,-7.660364 2.435913,-1.107582 5.090317,-0.460022 6.948827,-2.732742 0.32721,-0.612732 0.43406,-0.992127 0.47168,-1.697243 -1.47677,-4.637512 -3.63946,-8.661987 -5.382963,-12.865799 -0.81147,-1.956581 -1.858574,-3.830826 -1.311165,-6.43412 3.054158,-4.821304 4.282908,-10.062244 7.059808,-15.027275 3.9367,-1.524872 7.55017,-1.493874 11.60748,-0.206917 0.68516,0.369312 0.93726,0.555462 1.45813,1.126023 1.92517,3.848995 1.40347,7.564689 1.42096,11.191955 0.0329,6.818062 0.18851,13.639473 -0.19018,20.861664 0.3791,1.852287 -2.15503,3.445831 0.51596,4.838272 6.28424,0.937599 7.68103,-0.173248 8.13518,-6.159798 0.12425,-1.637802 0.0548,-3.300766 0.7667,-5.22879 2.96341,-5.720329 2.69359,-11.129417 0.16782,-16.955421 -0.75495,-3.566822 0.40095,-6.218987 2.63601,-8.959633 0.86689,-0.625954 1.44257,-0.81036 2.51912,-0.887085 5.65319,-0.675919 10.84661,-1.073944 16.4889,0.04483 0.74168,0.111446 1.03245,0.178272 1.70672,0.466606 2.62895,2.706661 3.26808,5.661408 3.25833,8.945603 -0.0207,6.981422 -0.0502,13.964073 0.0356,20.945655 0.0224,1.821396 -0.0604,3.679795 0.87601,5.352028 0.7971,1.423546 2.00107,2.231415 3.66713,2.085724 1.44803,-0.126617 2.43416,-0.991211 3.03801,-2.279625 0.80411,-1.715759 0.70834,-3.569503 0.72619,-5.391075 0.07,-7.147995 -0.01,-14.296554 0.0486,-21.444656 0.0217,-2.659409 -0.0238,-5.340405 1.83144,-8.026604 4.6516,-2.169258 9.0349,-1.809383 13.85339,-0.499542 2.88994,2.043308 2.82363,4.786014 2.87397,7.436558 0.1421,7.482517 -0.0424,14.967754 0.1,22.450069 0.1026,5.391647 1.84108,8.332207 4.82011,7.862198 4.45624,-0.703087 4.36672,-4.422104 4.44135,-7.75721 0.15998,-7.149116 0.004,-14.30172 0.0865,-21.452324 0.0288,-2.485534 -0.10542,-5.017116 1.59902,-7.603599 4.60478,-2.842572 9.22183,-1.950821 14.20537,-1.36274 0.67822,0.266979 0.94824,0.363426 1.57627,0.681168 2.16799,2.268036 2.12693,4.793304 2.14992,7.28585 0.0674,7.313446 -0.002,14.627335 0.0416,21.940895 0.01,1.659737 -0.0823,3.340607 0.36051,4.959473 0.57843,2.1147 1.88498,3.549797 4.17823,3.652908 2.13918,0.09618 3.28913,-1.301773 4.05977,-3.099853 0.73889,-1.723976 0.79471,-3.55439 0.82204,-5.385987 0.0719,-4.819984 -0.0584,-9.641906 0.0742,-14.460487 0.18051,-6.559425 1.59647,-7.94281 7.94231,-8.098099 8.39386,-0.205394 15.16499,2.302666 19.52661,10.181237 3.12933,5.65261 7.24236,10.738014 10.5795,16.296852 0.69083,1.15068 1.4736,2.217399 2.5141,3.068687 1.63467,1.337433 3.44906,2.291084 5.42489,0.884293 2.01392,-1.433914 1.87534,-3.599816 0.72358,-5.356026 -4.44648,-6.779945 -8.07138,-14.170608 -14.33304,-19.635979 -3.68331,-3.214912 -3.33185,-5.77975 1.05282,-7.843982 2.53037,-1.191258 5.53061,-1.337841 7.98429,-3.676747 0.98486,-0.815929 1.75329,-1.10762 3.05575,-1.178985 6.27808,-1.225395 12.1438,-1.006443 18.44995,-0.34018 2.43613,-0.309871 4.44809,0.159699 6.88742,-0.03922 7.40342,0.891876 14.4083,-1.636558 21.83048,0.353279 1.10989,0.04168 1.72592,0.173149 2.71643,0.693962 1.95609,2.182755 2.05475,4.408089 1.66885,7.170716 -0.37887,1.022903 -0.70391,1.539245 -1.42013,2.30101 -5.61438,2.833809 -11.50855,0.831085 -16.96295,2.458618 -1.71808,0.51265 -3.57868,0.678909 -5.35636,1.107391 -4.73425,1.141121 -8.14676,3.559784 -9.03143,8.738945 -0.85825,5.024353 0.53497,9.196106 4.37668,12.513733 6.01288,5.192597 14.53216,5.540551 21.13666,0.458565 3.33654,-2.567406 5.60019,-3.404205 8.55114,0.635941 2.3039,3.154266 5.84748,1.985633 7.10916,-1.868721 0.52594,-1.606705 0.51276,-3.283547 0.49402,-4.941887 -0.0901,-7.975075 0.36957,-15.958405 -0.29828,-23.923767 -0.14709,-1.75409 0.13184,-3.300759 1.74308,-4.82687 4.75812,-1.696934 9.16601,-1.943898 13.88586,0.06024 2.73734,2.023209 3.26785,4.493782 3.27088,7.305691 0.008,7.327751 -0.0263,14.655769 0.0271,21.983444 0.0121,1.662308 -0.0817,3.344101 0.36768,4.967522 0.54276,1.960869 1.75647,3.24881 3.90155,3.199364 2.14575,-0.04948 3.2843,-1.412529 3.767,-3.374138 0.36087,-1.466507 0.29642,-2.978256 0.31018,-4.475533 0.0659,-7.160866 -0.20068,-14.329414 0.16598,-21.480255 0.17548,-3.421612 -0.99658,-4.962265 -4.46279,-4.937157 -1.94995,0.01413 -4.06067,0.204819 -5.88984,-1.781749 -3.57092,-4.36882 -3.66861,-11.425316 -0.49075,-14.880383 3.31128,-3.600136 8.28281,-3.854217 12.86823,-0.04764 2.52554,2.096611 4.1629,0.813938 6.18939,-0.324051 8.79562,-4.939251 21.67169,-3.285129 27.43738,3.76899 2.48288,3.037662 5.0032,6.35012 3.21612,11.148136 -2.1091,2.082989 -4.48507,2.105686 -6.81018,2.158325 -3.07761,0.06968 -4.5629,1.51537 -4.56241,4.630139 10e-4,8.162223 -0.13424,16.325515 0.0847,24.485809 0.0711,2.651115 0.7691,5.28524 3.99121,5.357437 3.60843,0.08086 4.12866,-2.77108 4.20642,-5.589241 0.16995,-6.161827 -0.005,-12.327331 0.10095,-18.489738 0.0428,-2.474137 -0.27804,-5.017746 1.17777,-7.683892 4.00186,-2.634811 6.39438,-0.992969 7.47143,2.617897 1.79908,6.031304 4.74381,11.696328 5.73722,17.974144 0.30761,1.943985 1.43527,3.313401 3.12515,4.880494 0.97204,1.780975 0.79596,3.324264 0.82666,5.283508 -0.56241,1.861427 -1.02167,3.202286 -0.3533,4.761261 4.73816,11.05165 3.47937,22.72284 3.4306,34.2639 -0.006,1.36302 -0.43393,2.61073 -1.81906,3.87752 z"
         inkscape:connector-curvature="0"
         style="opacity:1;fill:#79acdc;stroke:none" />
      <path
         id="path4495"
         d="M 21.291988,135.67264 C 15.336554,136 9.667854,135.85741 4.01208,136.06572 1.528138,136.15718 0.918303,135.54088 0.932,133.01269 1.05021,111.19241 1,89.371208 1,67.550285 1,46.895363 1.094672,26.239592 0.91007,5.58632 0.877993,1.997586 1.462411,0.885806 5.409534,0.89176 98.023338,1.031463 190.63739,1 283.2514,1 347.54819,1 411.845,1.017493 476.14169,0.942205 c 2.85834,-0.003347 3.97043,0.298658 3.95832,3.695634 -0.1525,42.641877 -0.14786,85.284646 -0.002,127.926571 0.0108,3.15974 -0.83444,3.71698 -3.66323,3.49942 C 472.95691,135.79636 469.4433,136 465.47266,136 c -2.58249,-1.60327 -2.70572,-3.92152 -2.74219,-6.27725 -0.1077,-6.96089 0.006,-13.92246 -0.071,-20.88333 -0.0256,-2.32292 0.28653,-4.90396 -1.12457,-6.77199 -3.07504,-4.070863 -3.07065,-8.69906 -2.79199,-13.294885 0.43237,-7.130608 -2.38742,-13.561119 -5.37192,-19.396408 -2.66556,-5.211739 -2.52365,-8.853493 1.17816,-13.325283 3.65201,-1.914753 7.21778,-1.173157 10.67163,-1.431412 4.84232,-0.362076 6.2472,-1.559532 6.34214,-6.440788 0.2041,-10.494484 0.21206,-20.994688 -0.005,-31.488947 -0.0986,-4.777388 -1.56589,-6.029345 -6.46622,-6.288997 -1.99649,-0.105789 -3.99814,-0.05187 -5.99753,-0.05189 -144.12826,-0.0012 -288.25653,-0.0018 -432.384803,3.07e-4 -12.353684,1.8e-4 -12.36108,0.007 -12.358966,12.526331 0.0014,8.164429 -0.09937,16.330054 0.04691,24.492922 0.104412,5.826424 1.349866,7.01931 7.071689,7.257946 2.82638,0.117874 5.670746,-0.04969 8.884209,0.759625 4.271614,4.74543 5.186604,9.531059 1.59148,14.690979 -0.378946,0.543876 -0.779472,1.150886 -0.844383,1.79425 -1.069876,10.604187 -6.585207,20.471604 -5.220301,31.47644 0.165064,1.33086 0.389782,2.78743 -0.31011,3.92093 -4.428348,7.17185 -3.111873,15.1022 -3.168745,22.85375 -0.0131,1.78563 0.669461,3.67125 -1.109499,5.55033 z"
         inkscape:connector-curvature="0"
         style="opacity:1;fill:#77abdc;stroke:none" />
      <path
         id="path4497"
         d="m 454.81696,56.922798 c -4.23795,7.595925 2.56665,12.724114 3.82458,18.844208 0.81952,3.987015 2.53497,7.770561 2.39481,12.020828 -0.15149,4.592652 -0.60553,9.243576 2.83828,13.196126 1.44538,1.65888 1.12937,4.07981 1.1276,6.24221 -0.008,9.27884 -0.003,18.55767 -0.002,28.30517 C 456.31244,136 447.62488,136 438.46866,136 c -0.88519,0.11449 -0.5408,-1.09857 -1.36487,-0.22711 C 427.64578,136 418.29153,136 408.46866,136 c -0.52243,-10.03996 -0.30805,-20.07333 -1.40225,-30.10084 -0.46125,-4.2267 -3.75476,-7.840116 -2.1836,-12.643102 1.1951,-0.85685 2.0849,-0.487717 3.01929,-0.111351 5.254,2.116195 7.91739,0.504142 8.69794,-5.174439 0.53094,-3.862419 -0.64197,-7.895805 1.42053,-11.907524 2.35391,-1.686851 3.95453,-0.853744 5.13614,0.999985 1.19357,1.87252 2.67926,3.201904 5.29086,3.628891 0.56866,0.223595 0.77893,0.346413 1.23792,0.728561 0.91934,1.393425 0.99984,2.710839 1.26547,3.944428 0.68304,3.171745 2.31802,3.991401 5.48703,2.337219 2.70318,-0.428139 4.47439,0.715851 6.10238,2.234779 0.96909,0.904183 1.87787,1.894364 3.01984,2.581574 1.57477,0.947655 3.30145,2.095497 4.94028,0.356628 1.60788,-1.706024 1.27582,-3.736381 -0.047,-5.458145 -1.71899,-2.237442 -3.69662,-4.307846 -5.98718,-5.938721 -3.41422,-2.430954 -6.18988,-5.505851 -9.08151,-8.459793 -3.27652,-3.347191 -3.05573,-5.221046 -0.0698,-9.00206 2.84586,-3.603611 7.1084,-5.305477 10.71375,-8.478679 0.63446,-0.183991 0.90292,-0.225575 1.58688,-0.236283 2.63651,0.314335 5.17172,-1.158523 7.20133,1.62167 z"
         inkscape:connector-curvature="0"
         style="opacity:1;fill:#78abdc;stroke:none" />
      <path
         id="path4499"
         d="m 98.960587,95.722931 c -0.448906,1.770676 -1.417756,2.390648 -2.693116,1.760849 -4.260704,-2.104042 -4.282798,0.560951 -4.287864,3.58389 -0.0099,5.90341 0.1492,11.50173 -3.109459,17.24269 C 86.173019,123.06201 88.287247,129.42425 88,135.53198 75.979103,136 63.95821,136 51.468658,136 c -3.502136,-3.86272 -2.317039,-8.32758 -2.215831,-12.62189 0.01409,-0.5981 0.675979,-1.16237 0.644497,-1.84261 -0.561921,-12.14017 2.314289,-23.827019 4.435993,-35.637757 0.511745,-2.848709 1.456692,-5.354004 2.801807,-8.281029 1.684536,-1.812942 3.564499,-1.782203 5.369419,-1.825035 7.123265,-0.169082 14.247319,-0.09212 21.372219,-0.03032 3.689156,0.032 6.11142,1.586952 8.062096,4.740158 2.897621,4.683907 4.20919,10.064865 7.021729,15.221413 z"
         inkscape:connector-curvature="0"
         style="opacity:1;fill:#78acdd;stroke:none" />
      <path
         id="path4501"
         d="m 21.468653,136 c -2.011458,-6.73914 -2.775818,-13.95224 -1.083475,-20.3001 2.494077,-9.35512 1.580593,-19.340502 4.463792,-27.96139 2.295927,-6.864921 1.087086,-14.894897 6.32938,-20.918716 2.195712,-2.523049 -0.06844,-5.776818 -0.166051,-9.094788 1.596145,-3.758484 4.76971,-2.740845 7.44128,-2.975567 1.983696,-0.174282 3.991207,0.0025 6.382938,0.551502 0.665673,0.337704 0.912945,0.49469 1.460968,0.955525 1.792328,2.868591 0.561444,5.133156 -0.531597,7.377132 -3.277939,6.729508 -6.109909,13.667084 -9.548809,20.323197 -0.98954,1.915291 -1.688495,3.983719 -1.857014,6.502083 0.05864,0.742195 0.14383,1.149437 0.464715,1.790954 3.53939,2.424805 5.764816,0.947678 7.398029,-2.081787 1.719753,-3.18998 2.697437,-6.730934 4.593986,-9.846252 1.812336,-2.976975 3.989563,-4.907692 7.929985,-2.611084 1.353245,2.021476 0.803738,3.823043 0.431046,5.594207 -3.233151,15.365143 -5.722897,30.817874 -5.882095,46.577054 -0.01937,1.91722 0.02706,4.0522 -2.007584,5.82036 C 38.645767,136 30.291536,136 21.468653,136 Z"
         inkscape:connector-curvature="0"
         style="opacity:1;fill:#78acdd;stroke:none" />
      <path
         id="path4503"
         d="m 47.399994,136 c 0.19043,-12.68125 1.93594,-25.22559 3.462822,-37.814217 0.788574,-6.501548 3.691479,-12.610885 3.140999,-19.615944 0.912159,-1.575508 2.078441,-1.581405 3.676506,-0.701721 -2.124218,8.343705 -2.375672,16.824211 -5.171341,24.777642 -0.840264,2.39049 -0.396431,5.23875 -0.505146,7.87878 -0.338616,8.22312 -0.660126,16.44693 -0.996052,25.07296 C 49.933331,136 48.866661,136 47.399994,136 Z"
         inkscape:connector-curvature="0"
         style="opacity:1;fill:#77abdc;stroke:none" />
      <path
         id="path4505"
         d="m 437.25,136 c -0.68869,-0.70085 -1.1705,-1.37882 -1.55692,-2.10739 -0.76834,-1.44869 -0.85589,-2.91028 0.51264,-4.02507 0.3985,-0.32463 1.39844,-0.42496 1.78897,-0.15149 1.30795,0.91588 0.93707,2.32023 0.66885,3.6189 -0.13357,0.64668 -0.34073,1.27816 -0.58905,2.29078 C 438,136 437.5,136 437.25,136 Z"
         inkscape:connector-curvature="0"
         style="opacity:1;fill:#77abdc;stroke:none" />
      <path
         id="path4507"
         d="m 46.32515,57.601391 c -5.00261,-1.077519 -9.719731,-0.251663 -14.862582,-0.345349 -5.619405,0.0037 -10.780439,-0.20005 -15.93478,-0.09009 -2.806022,0.05986 -3.769589,-0.909031 -3.748612,-3.727406 0.104121,-13.989086 0.08864,-27.979572 0.01327,-41.969015 -0.01352,-2.509379 0.728288,-3.747286 3.404717,-3.49435 1.485352,0.140372 2.995385,0.016915 4.494292,0.016915 149.058755,10e-6 298.117535,-0.00721 447.176285,0.021353 8.28552,0.00159 7.25058,-1.243385 7.29492,7.512582 0.0624,12.324091 -0.13211,24.651533 0.10162,36.971498 0.0729,3.839794 -1.20856,4.910671 -4.85504,4.689873 -4.47864,-0.271191 -8.98825,-0.03001 -13.94733,0.0672 -2.87252,4.88e-4 -5.28219,-0.07654 -8.14477,-0.182663 -1.61792,-2.543389 0.25857,-4.003453 1.49911,-5.692078 1.25144,-1.703404 2.06699,-3.569191 0.45575,-5.397736 -1.78863,-2.029964 -3.86834,-1.391777 -5.78521,-0.08128 -4.64298,3.174217 -7.91251,7.919838 -12.87973,11.300167 -1.11054,0.99419 -2.08625,1.321804 -3.60859,1.312206 -2.66351,0.08372 -4.92309,1.111763 -7.55304,-0.23867 -0.63171,-0.336483 -0.86297,-0.506752 -1.34545,-1.02285 -1.526,-2.81363 -1.37089,-5.495598 -1.40061,-8.144276 -0.0801,-7.135281 0.13223,-14.273251 -0.12732,-21.406031 -0.10376,-2.850647 -0.95602,-5.532343 -4.32297,-5.671655 -3.68627,-0.152525 -4.69592,2.606615 -4.81793,5.676542 -0.2702,6.80007 -0.0381,13.60697 -0.13519,20.409956 -0.0377,2.637844 0.26865,5.324768 -0.96127,8.271549 -0.32584,0.655041 -0.49387,0.900967 -1.02024,1.422764 -4.54205,1.931591 -8.7648,1.891052 -13.64245,-0.10466 -2.87802,-18.281014 -25.11112,-20.64539 -36.35578,-7.85693 -0.48309,-3.332172 -1.02585,-6.445732 -4.55377,-7.547367 -4.61926,-1.442429 -8.63397,1.35466 -8.87521,6.322975 -0.12043,2.480381 -0.01,4.971993 0.11316,7.865074 -4.63147,0.462895 -9.37943,0.519245 -14.92118,0.379299 -4.32324,-3.78368 -5.92764,-9.137817 -11.41378,-10.95903 -9.51093,-3.157314 -18.56803,-2.125679 -27.40705,2.232365 -3.75467,1.851223 -2.14975,5.482807 -2.99124,8.646206 -6.61353,0.286705 -12.99362,0.305763 -19.84521,0.324142 -2.45829,-2.088501 -1.01685,-4.047744 -0.15592,-5.944385 2.30658,-5.081482 2.42978,-10.311539 0.98187,-15.567559 -1.96176,-7.121263 -6.96841,-11.175739 -13.98385,-12.685102 -11.47478,-2.468779 -23.1207,-1.782217 -34.71497,-1.298422 -4.04481,0.168778 -6.15916,2.764647 -6.20354,6.977144 -0.0752,7.138628 0.047,14.277728 -0.0857,21.414828 -0.0424,2.281933 0.32276,4.708603 -1.85142,6.817421 -5.07396,0.221748 -9.79296,0.236602 -15.29717,0.05143 -2.5909,-1.893878 -2.25276,-4.170162 -2.38273,-6.290588 -0.18865,-3.077679 -0.92525,-5.859642 -4.6222,-5.933708 -3.68149,-0.07375 -4.61723,2.587383 -4.82014,5.721523 -0.12738,1.967735 0.14918,4.033837 -1.67681,6.195576 -5.04933,0.435409 -9.53689,0.465588 -14.50949,0.426376 -0.71969,0.0029 -0.95437,0.07513 -1.50927,-0.0285 -0.79638,-0.653408 -1.15198,-1.225193 -1.43842,-1.819901 -5.8515,-12.148708 -17.41618,-14.842792 -28.12476,-6.541271 -3.6793,2.852268 -4.80915,2.73423 -7.51352,-1.189285 -1.34876,-1.956791 -2.83381,-3.352081 -5.34297,-2.578572 -2.30715,0.711243 -2.67008,2.689511 -2.86621,4.773953 -0.22863,2.429962 0.38081,5.069702 -1.93162,7.261986 -4.02972,0.205864 -7.74368,0.252647 -11.91299,0.376175 -3.57128,2.784843 -7.174608,2.060589 -11.163469,1.445034 -0.684197,-0.13963 -0.95414,-0.18581 -1.617241,-0.311459 -3.993225,-2.80756 -5.74585,-6.808166 -7.329537,-10.779499 -2.649803,-6.644806 -6.471679,-12.736961 -8.922859,-19.463262 -0.281158,-0.771512 -0.715668,-1.497441 -1.142181,-2.211802 -3.617974,-6.059679 -8.854241,-6.095377 -12.123356,0.09372 -4.420826,8.369533 -8.122986,17.09 -12.078312,25.685028 -1.05505,2.292644 -2.005665,4.576763 -4.758018,5.891899 z"
         inkscape:connector-curvature="0"
         style="opacity:1;fill:#073763;stroke:none" />
      <path
         id="path4509"
         d="m 209.03287,57.010704 c -6e-5,-9.778812 -0.0649,-19.580547 -0.0243,-29.381844 0.0232,-5.618021 1.82385,-7.96223 7.15739,-8.059709 11.28572,-0.206274 22.62748,-0.912544 33.85495,0.540779 17.98386,2.327887 25.10978,19.862188 14.95307,36.634882 -0.46845,0.631924 -0.91333,0.896713 -1.61667,1.209747 -16.6539,2.708546 -33.15497,0.969593 -49.60817,1.210533 -1.50453,0.02203 -3.00366,-0.268951 -4.43614,-1.868675 -0.35204,-0.342075 -0.30072,-0.308449 -0.28012,-0.285713 z"
         inkscape:connector-curvature="0"
         style="opacity:1;fill:#77aadb;stroke:none" />
      <path
         id="path4511"
         d="m 92.142349,56.804085 c 0.417778,0.225425 0.589173,0.186722 0.676255,0.175079 4.258621,3.473164 6.41262,7.871124 6.05307,13.739571 2.648186,6.765053 5.385386,13.156967 8.211216,19.915855 0.35576,0.809197 0.42582,1.284439 0.0669,2.057251 -2.31988,2.017944 -4.29539,3.962044 -7.763556,3.417519 -4.738152,-1.313156 -5.263001,-5.421364 -6.724777,-8.846123 -3.934327,-9.217628 -3.924736,-9.226654 -13.80346,-9.219879 -6.642593,0.0046 -13.285171,0.0255 -20.392356,0.104423 -1.533982,0.02146 -2.603363,-0.02239 -4.06984,-4.04e-4 -3.080711,-0.615486 -4.720959,0.394119 -5.752994,2.975678 -1.336819,3.343955 -2.88657,6.606422 -4.431576,9.862724 -2.778324,5.855675 -5.3517,6.603111 -11.529038,3.125686 -0.883127,-0.344802 -1.18938,-0.709411 -1.041759,-1.725929 0.524292,-8.674881 6.010517,-14.990761 8.718841,-22.38887 1.472599,-4.022583 3.617699,-7.798969 5.506432,-12.057785 3.747406,-2.45652 7.594532,-3.787624 12.278324,-2.505669 2.658154,1.930702 2.37418,4.177235 1.463169,6.460572 -1.053921,2.641525 -0.05778,3.756614 2.602745,3.794029 4.811154,0.06764 9.622219,0.07741 14.433323,-0.0047 2.437866,-0.0416 3.211929,-1.114441 2.496498,-3.524563 -0.66838,-2.251571 -1.063644,-4.602142 1.48494,-6.63483 4.073936,-0.956486 7.753548,-1.3578 11.517593,1.280327 z"
         inkscape:connector-curvature="0"
         style="opacity:1;fill:#093965;stroke:none" />
      <path
         id="path4513"
         d="m 208.99397,57.425014 c 14.28295,-0.347412 28.59902,-0.233943 42.91481,-0.09387 3.49286,0.03418 6.98487,0.155652 10.83368,0.454327 -2.83996,3.274353 -6.90349,4.682358 -11.85354,6.185501 9.60522,5.331391 12.96737,14.848839 18.56396,22.618302 2.13736,2.967186 3.04749,6.116394 -0.43396,8.760154 -3.621,2.749748 -7.17505,1.697525 -9.6171,-1.523544 -3.81199,-5.028076 -7.09295,-10.458511 -10.60485,-15.7145 -1.75608,-2.62819 -3.42778,-5.320015 -5.31038,-7.854752 -3.15636,-4.249687 -14.60123,-7.052368 -19.33719,-4.904022 -1.8286,0.829506 -1.45833,2.44162 -1.47072,3.860145 -0.0554,6.332154 0.0841,12.668114 -0.0806,18.996613 -0.14783,5.6819 -2.34218,8.40699 -6.3745,8.492126 -4.61552,0.09745 -7.16136,-2.866943 -7.20825,-8.809997 -0.0789,-9.997956 -5.5e-4,-19.997139 -0.0214,-30.466481 z"
         inkscape:connector-curvature="0"
         style="opacity:1;fill:#0b3b68;stroke:none" />
      <path
         id="path4515"
         d="m 426.95841,57.155777 c 0.84616,-0.504314 1.43075,-0.785225 2.25338,-1.118401 5.48605,-0.928016 10.759,-2.896953 16.1276,0.73441 -2.77894,3.305103 -5.68552,6.279308 -8.79306,9.026134 -2.28611,2.020661 -3.00583,3.266297 -0.007,5.641609 5.19403,4.114418 9.85413,8.898819 14.78958,13.345147 3.17893,2.863838 3.97339,6.164276 1.51352,9.71009 -2.01803,2.908989 -5.69534,2.534981 -9.55398,-0.733818 -1.77198,-1.501076 -3.40845,-3.162102 -5.37476,-4.92292 -4.98376,0.272003 -6.79525,-2.924492 -8.34201,-6.912903 -0.0774,-0.362892 -0.0958,-0.41452 -0.1224,-0.420868 -2.71894,-0.820991 -4.99976,-2.18811 -6.65577,-4.560486 -0.72656,-1.040855 -1.64166,-2.103065 -3.46472,-1.170166 -0.32849,4.660698 -0.21142,9.109047 -0.55844,13.520882 -0.26428,3.360458 -1.41269,6.402878 -5.41846,7.180229 -3.28567,0.637627 -6.24972,0.711052 -7.93719,-3.331566 -0.25754,-1.556785 -0.20584,-2.941108 -0.24423,-4.73278 -1.69864,-2.466438 -1.95041,-4.932694 -2.17716,-7.4021 -0.55938,-6.091247 -0.37155,-12.194336 -0.22281,-18.293373 0.0438,-1.794021 0.0442,-3.672535 1.91361,-5.403255 0.34653,-0.364315 0.32019,-0.307362 0.29153,-0.294628 4.25299,-3.453957 8.74598,-2.931454 13.70331,-0.340207 0.37357,0.354573 0.31427,0.328293 0.30042,0.29897 2.33627,4.172191 5.02551,2.313751 7.97928,0.18 z"
         inkscape:connector-curvature="0"
         style="opacity:1;fill:#0b3b68;stroke:none" />
      <path
         id="path4517"
         d="m 326.96246,56.977043 c 1.80762,10.882111 0.68546,21.87249 0.7797,32.82431 0.0285,3.319977 -1.32947,6.200303 -5.41028,6.529831 -4.89511,0.395279 -6.85712,-2.455139 -7.62229,-7.383178 -3.3767,4.452972 -7.31628,7.282051 -12.50994,7.861404 -5.14713,0.574158 -9.92838,-0.590958 -14.15946,-3.558372 -5.21249,-3.655724 -7.49167,-8.794274 -6.65021,-15.084542 0.88434,-6.61026 5.05042,-10.02211 11.42945,-11.400505 6.70529,-1.448868 13.45358,-1.918678 20.73697,-1.89891 0.62442,-0.164612 0.7861,-0.268143 1.1076,-0.611176 0.21491,-2.265797 0.26996,-4.292084 0.45245,-6.73402 3.58664,-3.960026 7.34574,-3.218762 11.56568,-0.8382 0.37076,0.351857 0.30508,0.320149 0.28033,0.293358 z"
         inkscape:connector-curvature="0"
         style="opacity:1;fill:#0a3a66;stroke:none" />
      <path
         id="path4519"
         d="m 117.03166,57.012398 c -0.0873,-2.457962 -0.22259,-4.937401 -0.30807,-7.418553 -0.13619,-3.952644 1.19394,-6.90187 5.53971,-7.49393 4.49015,-0.611721 6.85351,1.65475 7.63111,5.9165 0.0821,0.449749 0.29942,0.874809 0.46864,1.352687 13.05237,-13.422515 33.86481,-8.049564 35.34203,7.214722 -3.99187,3.897148 -8.32022,3.106102 -13.08748,0.908302 -0.36804,-0.380226 -0.80592,-0.40652 -1.02495,-0.417984 -5.93004,-3.387012 -11.71382,-3.189052 -17.84714,-0.200843 -0.6679,0.174289 -1.03978,0.184917 -1.69021,0.211635 -4.86507,3.145432 -9.57569,3.053353 -14.7387,0.208912 -0.35984,-0.350525 -0.31062,-0.303692 -0.28494,-0.281448 z"
         inkscape:connector-curvature="0"
         style="opacity:1;fill:#78acdd;stroke:none" />
      <path
         id="path4521"
         d="m 193.9787,57.00272 c -0.12302,10.60609 -0.10306,21.24197 -0.38777,31.869694 -0.16841,6.286438 -4.15102,9.19532 -9.34633,7.238388 -3.91097,-1.473137 -4.07074,-4.925515 -4.09517,-8.271805 -0.0728,-9.975479 -0.0214,-19.951866 -0.0602,-30.395443 -0.0416,-0.467545 -0.0777,-0.413315 -0.11021,-0.414047 4.24913,-3.466355 8.74254,-2.942459 13.70085,-0.355908 0.37421,0.353813 0.31369,0.355484 0.29883,0.329121 z"
         inkscape:connector-curvature="0"
         style="opacity:1;fill:#0d3d6a;stroke:none" />
      <path
         id="path4523"
         d="m 116.96257,57.416206 c 4.62234,0.335213 9.2822,-0.213195 14.37093,-0.231178 -0.11904,2.300545 -0.68129,4.685089 -1.19892,7.443253 1.5799,6.055427 0.85726,11.797508 0.26639,17.949875 -0.29143,2.061546 -0.3806,3.702674 -0.39627,5.344497 -0.0712,7.464577 -2.84274,9.655258 -10.53874,7.934715 -2.7199,-0.459419 -3.67082,-1.782646 -2.89542,-4.494659 0.26412,-11.398186 0.33097,-22.435905 0.39203,-33.946503 z"
         inkscape:connector-curvature="0"
         style="opacity:1;fill:#073763;stroke:none" />
      <path
         id="path4525"
         d="m 342.04431,56.971519 c 3.95804,0.132676 7.94757,0.188984 11.92948,0.393719 1.09191,0.05615 3.2377,-0.54229 2.56543,1.75185 -3.02344,10.31749 -0.78586,20.858338 -1.51725,31.265007 -0.29645,4.218605 -3.2041,6.801285 -7.28518,6.227303 -3.81867,-0.537087 -5.83176,-2.712616 -5.79349,-6.773224 0.10052,-10.660286 0.0772,-21.321747 0.1384,-32.461361 0.0351,-0.478626 -0.009,-0.423725 -0.0374,-0.403294 z"
         inkscape:connector-curvature="0"
         style="opacity:1;fill:#093965;stroke:none" />
      <path
         id="path4527"
         d="m 391.53824,61.609665 c -0.29202,9.347595 -0.30014,18.301262 -0.37961,27.254288 -0.0486,5.471038 -2.28378,8.095192 -6.61374,7.954246 -4.40219,-0.143303 -6.46359,-2.607887 -6.53619,-8.12265 -0.12659,-9.61544 -0.0466,-19.235069 -0.3042,-28.84621 -0.0589,-2.196343 0.72043,-2.53806 2.47903,-2.532441 3.31604,0.0106 6.6323,-0.05048 10.40576,-0.182342 0.45731,-0.100578 0.40512,-0.13599 0.38697,-0.161743 1.15271,1.222591 1.64135,2.604236 0.56198,4.636852 z"
         inkscape:connector-curvature="0"
         style="opacity:1;fill:#093965;stroke:none" />
      <path
         id="path4529"
         d="m 152.19412,57.521412 c 4.21921,-0.372986 8.38297,-0.336464 13.04932,-0.414986 0.50258,-0.115043 0.4277,-0.128662 0.39956,-0.15366 0.94777,11.280404 0.32831,22.60643 0.35419,33.922463 0.01,4.194786 -2.89358,5.995331 -6.60026,5.783905 -3.95708,-0.225716 -6.40465,-2.602478 -6.41802,-6.851135 -0.0246,-7.829361 -0.0438,-15.659005 5.8e-4,-23.488167 0.0161,-2.835514 -0.0776,-5.640629 -0.78537,-8.79842 z"
         inkscape:connector-curvature="0"
         style="opacity:1;fill:#093965;stroke:none" />
      <path
         id="path4531"
         d="m 327.0387,56.65728 c -3.63096,0.456387 -7.27613,0.534508 -11.35804,0.530792 -0.81579,-0.0992 -1.19476,-0.116562 -1.85794,-0.142761 -3.88614,-2.6101 -7.89139,-3.038399 -12.15542,-2.309151 -3.75034,0.641388 -7.60553,0.676117 -11.48438,2.234692 -1.66327,1.136722 -3.12106,1.242905 -4.88421,0.2798 -4.02756,-5.607319 -3.26407,-8.7071 2.57141,-11.565544 7.71429,-3.778797 15.9248,-4.670505 24.26297,-3.375435 7.9367,1.232712 13.20141,5.823479 14.90561,14.347607 z"
         inkscape:connector-curvature="0"
         style="opacity:1;fill:#77aadb;stroke:none" />
      <path
         id="path4533"
         d="m 391.65064,62.01796 c -0.48389,-1.417553 -0.60154,-2.821015 -0.70588,-4.64769 4.39536,-0.381077 8.77741,-0.33894 13.62253,-0.359875 0.54065,9.981083 0.61823,20.025227 0.60434,30.531002 -5.30527,-2.565536 -4.49466,-8.68544 -6.9603,-13.144195 -1.55093,-2.804696 -2.10171,-6.183182 -2.95834,-9.342988 -0.47778,-1.762325 -1.17795,-3.059135 -3.60235,-3.036254 z"
         inkscape:connector-curvature="0"
         style="opacity:1;fill:#78abdc;stroke:none" />
      <path
         id="path4535"
         d="m 99.082932,70.904572 c -3.022912,-3.945931 -4.637055,-8.580399 -6.259568,-13.555455 3.811081,-0.31234 7.539846,-0.243084 11.725006,-0.09723 0.58465,5.380158 -1.22759,9.868966 -5.465438,13.652688 z"
         inkscape:connector-curvature="0"
         style="opacity:1;fill:#78acdd;stroke:none" />
      <path
         id="path4537"
         d="m 322.01282,114.88781 c 1.22101,1.55122 1.38446,3.43196 3.58481,4.55283 0.17221,-3.43505 0.33111,-6.60488 0.49002,-9.77471 0.44607,-0.0186 0.89212,-0.0371 1.33819,-0.0557 0.79096,4.68133 0.74396,9.51601 0.0443,14.2031 -0.28945,1.93911 -2.02591,0.68071 -2.74591,-0.47373 -1.62481,-2.60512 -3.15667,-5.26819 -5.1391,-8.60179 -1.63668,3.74325 -0.0614,7.07012 -2.04998,9.83935 -1.54764,-4.65397 -1.22342,-9.45593 -0.73539,-14.18076 0.1868,-1.80871 1.67881,-1.19877 2.45984,-0.0874 0.95261,1.35548 1.72583,2.83703 2.75321,4.57883 z"
         inkscape:connector-curvature="0"
         style="opacity:1;fill:#194a77;stroke:none" />
      <path
         id="path4539"
         d="m 167.18918,122.27531 c -0.0175,-2.90618 -0.15953,-5.40276 0.0221,-7.87557 0.13271,-1.8071 -1.09067,-4.47574 1.59392,-5.11194 2.71857,-0.64427 5.80827,-0.63081 7.89403,1.72194 1.83269,2.06725 1.2258,4.26013 -0.69831,6.14072 -3.08407,3.0143 2.46222,4.64306 1.02268,7.5713 -2.10339,0.26156 -2.1312,-1.91909 -3.06755,-3.02272 -0.9083,-1.07056 -1.07514,-3.14877 -2.98827,-2.8487 -2.04777,0.32122 -1.40346,2.27066 -1.6656,3.64916 -0.15411,0.81039 0.30371,2.25138 -1.33759,1.85626 -0.36577,-0.0881 -0.51318,-1.08316 -0.77537,-2.08045 z"
         inkscape:connector-curvature="0"
         style="opacity:1;fill:#194a77;stroke:none" />
      <path
         id="path4541"
         d="m 257.59625,124.76769 c -5.48662,-4.50771 -3.0393,-9.98702 -3.39387,-15.99674 2.74504,1.69726 1.97145,3.47664 2.10606,4.91483 0.20029,2.13977 0.1463,4.30782 0.42471,6.43448 0.23911,1.82607 1.29007,3.07649 3.35172,2.90506 1.96023,-0.16299 2.95715,-1.3367 3.05325,-3.26379 0.16944,-3.39723 0.30564,-6.79611 1.24753,-10.17779 1.22983,4.32685 1.87164,8.71459 0.0443,12.96596 -1.17798,2.74062 -3.86072,2.76967 -6.83368,2.21799 z"
         inkscape:connector-curvature="0"
         style="opacity:1;fill:#194a77;stroke:none" />
      <path
         id="path4543"
         d="m 271.97766,119.67204 c -0.44067,1.87044 0.46851,3.66143 -1.69534,5.53748 -1.39456,-5.21715 -1.39102,-10.16226 -0.30164,-14.69758 0.65869,-2.74227 4.22238,-1.44184 6.52515,-0.90188 2.66247,0.6243 4.74621,3.36219 3.16519,5.01966 -3.45877,3.62596 -1.23547,6.61858 0.28629,10.29357 -3.07972,-0.55177 -3.08701,-2.97081 -4.26587,-4.31595 -0.96112,-1.09668 -1.51367,-3.41476 -3.71378,-0.9353 z"
         inkscape:connector-curvature="0"
         style="opacity:1;fill:#194a77;stroke:none" />
      <path
         id="path4545"
         d="m 300.42658,120.20264 c -0.24576,-1.03771 -0.40876,-1.69609 -0.41599,-2.35617 -0.062,-5.68145 2.72427,-9.10266 7.14764,-8.81653 4.0517,0.26209 6.53122,4.1014 5.95948,9.33954 -0.35065,3.21229 -1.66272,5.89252 -5.10169,6.58379 -3.62515,0.72869 -6.09326,-0.97861 -7.58944,-4.75063 z"
         inkscape:connector-curvature="0"
         style="opacity:1;fill:#194a77;stroke:none" />
      <path
         id="path4547"
         d="m 339.52039,109.21739 c 1.26223,0.47593 2.31958,0.69791 2.31323,1.99426 -7.04154,-0.21236 -10.39731,3.72036 -7.78327,9.08813 0.8895,1.82651 2.2504,2.83736 4.30439,2.76105 0.98141,-0.0365 1.96911,-0.09 2.44186,-1.25801 0.97855,-2.41751 -1.29272,-2.92659 -2.715,-4.19604 2.11008,-1.0209 4.13065,-1.81235 4.75559,0.92744 0.5856,2.56766 0.70709,5.57084 -2.93494,6.33362 -3.89853,0.81649 -6.84344,-0.44789 -8.29834,-4.39889 -1.54971,-4.20843 0.0637,-9.2053 3.66507,-10.74577 1.16324,-0.49757 2.5773,-0.40873 4.25141,-0.50579 z"
         inkscape:connector-curvature="0"
         style="opacity:1;fill:#194a77;stroke:none" />
      <path
         id="path4549"
         d="m 290.41363,57.206921 c 6.06815,-6.102425 18.60462,-6.629685 23.10688,-0.562539 -7.53321,0.436821 -15.08444,0.481553 -23.10688,0.562539 z"
         inkscape:connector-curvature="0"
         style="opacity:1;fill:#0d3d6a;stroke:none" />
      <path
         id="path4551"
         d="m 133.78682,121.5889 c 2.25372,-3.23479 2.03831,-6.5306 3.08783,-9.42141 0.39154,-1.07846 0.35994,-2.62606 1.67271,-2.73164 1.52133,-0.12234 1.33097,1.53028 1.73743,2.55313 0.8438,2.1234 0.65543,4.60411 2.43581,6.71865 2.26651,-2.69988 0.98342,-6.65532 3.74119,-9.10816 0.36769,4.12496 -0.77827,8.03267 -2.08635,12.18918 -0.68535,0.56994 -1.13836,0.71444 -1.95628,0.44893 -2.35359,-2.18252 -2.43497,-5.11685 -3.78594,-7.70708 -1.79152,2.50832 -1.39097,5.41922 -2.71159,8.15415 -1.2616,1.072 -1.95984,0.66919 -2.13481,-1.09575 z"
         inkscape:connector-curvature="0"
         style="opacity:1;fill:#194a77;stroke:none" />
      <path
         id="path4553"
         d="m 350.85721,111.09065 c -2.38324,0.97198 -2.844,2.25299 -1.02875,3.77179 0.74259,0.62133 1.74927,0.93641 2.6528,1.35408 2.4657,1.1398 4.50141,2.72248 3.3422,5.73753 -1.25898,3.27437 -4.10117,3.55055 -7.09711,2.80322 -1.10928,-0.27672 -2.23801,-0.75631 -2.45151,-2.15446 0.52969,-0.56226 1.10214,-0.48449 1.76434,-0.23092 2.0701,0.79265 4.63614,1.71595 5.59714,-0.94925 0.91129,-2.52731 -1.96585,-3.04238 -3.62036,-3.92665 -2.71643,-1.45184 -5.31757,-3.24491 -2.97446,-6.48938 2.23203,-3.09061 5.28092,-2.46789 8.46677,-0.26738 -1.70548,1.9647 -3.03131,-0.18536 -4.65106,0.35142 z"
         inkscape:connector-curvature="0"
         style="opacity:1;fill:#194a77;stroke:none" />
      <path
         id="path4555"
         d="m 294.97867,109.41959 c 1.34543,1.10325 3.12582,2.31511 -0.23065,1.87444 -1.62238,-0.213 -3.63257,-0.86208 -4.28595,1.21424 -0.80713,2.5649 1.80716,2.71066 3.24756,3.50136 2.06881,1.13571 4.28469,2.08369 4.07165,4.97668 -0.1315,1.78547 -1.07263,3.2844 -2.8114,3.7285 -2.77084,0.70768 -5.55441,0.85456 -7.46725,-2.06628 0.39794,-0.26476 0.68258,-0.60951 0.8894,-0.56784 2.28183,0.45959 5.20767,2.58637 6.55966,-0.46092 1.34454,-3.03054 -2.16632,-3.38099 -4.04535,-4.40338 -2.07953,-1.13145 -3.60382,-2.69031 -2.77566,-5.15473 1.0643,-3.16714 3.69088,-3.38117 6.84799,-2.64207 z"
         inkscape:connector-curvature="0"
         style="opacity:1;fill:#194a77;stroke:none" />
      <path
         id="path4557"
         d="m 217.30728,111.74912 c -4.13519,5.54035 2.28896,8.36209 2.5341,12.8637 -2.44593,0.12891 -2.57614,-2.12262 -3.61967,-3.2881 -0.99953,-1.11631 -0.95634,-3.69053 -3.21297,-3.03298 -1.84858,0.53867 -1.85186,2.5155 -1.88458,4.21745 -0.0153,0.79716 0.0207,1.67807 -1.6772,2.36473 -0.81821,-5.22575 -0.42177,-10.22185 -0.30916,-16.30667 2.89472,2.38089 1.37937,4.84033 2.4801,6.76863 2.03519,-0.59062 2.75666,-2.65016 4.45877,-4.07294 0.60341,-0.14281 0.93467,-0.0805 1.23061,0.48618 z"
         inkscape:connector-curvature="0"
         style="opacity:1;fill:#194a77;stroke:none" />
      <path
         id="path4559"
         d="m 133.95453,57.098465 c 4.48578,-5.954571 12.04312,-6.238602 17.27717,-0.380135 -5.49609,0.376782 -11.13411,0.409211 -17.27717,0.380135 z"
         inkscape:connector-curvature="0"
         style="opacity:1;fill:#194a77;stroke:none" />
      <path
         id="path4561"
         d="m 362.55127,57.134647 c -1.23962,-0.100479 -2.34052,0.09014 -2.79279,-0.364486 -0.73815,-0.741974 0.1633,-1.410946 0.75135,-1.963402 3.88388,-3.648853 11.79812,-2.780399 15.51904,2.32922 -4.66129,0 -8.85446,0 -13.4776,-0.0013 z"
         inkscape:connector-curvature="0"
         style="opacity:1;fill:#0b3b68;stroke:none" />
      <path
         id="path4563"
         d="m 152.19354,124.47146 c -1.8089,0.54086 -2.20787,-0.37811 -2.20144,-1.73444 0.0118,-2.49343 -0.0147,-4.987 -0.0128,-7.48051 0.005,-6.72565 1.85091,-7.80267 8.61039,-5.03211 -1.42897,2.56375 -6.62587,-1.81067 -6.51786,3.50428 0.0791,3.89247 3.89667,1.053 5.53455,3.18599 -3.1758,0.67198 -7.12526,0.8092 -5.27574,6.04456 0.13653,0.63 0.10733,0.89902 -0.13709,1.51223 z"
         inkscape:connector-curvature="0"
         style="opacity:1;fill:#0d3d6a;stroke:none" />
      <path
         id="path4565"
         d="m 242.73315,109.82734 c 5.17948,-0.79645 7.69106,1.15886 8.21694,5.95757 0.62671,5.71913 -1.81348,8.47116 -8.57567,9.15171 -0.69431,-0.45855 -0.89835,-0.88632 -0.93939,-1.72191 0.12896,-0.50291 0.17265,-0.69061 0.29065,-0.79088 5.64656,-4.79899 5.70428,-5.53995 0.75616,-11.2526 -0.0214,-0.57369 0.0339,-0.8022 0.25131,-1.34389 z"
         inkscape:connector-curvature="0"
         style="opacity:1;fill:#194a77;stroke:none" />
      <path
         id="path4567"
         d="m 235.33707,112.46976 c -2.45734,3.92823 -3.48459,7.95628 -4.28106,12.34105 -0.30764,-5.57997 -3.15512,-10.13759 -5.64405,-15.8197 4.13015,1.39438 3.51526,5.1593 5.98544,6.83233 0.97621,-1.79513 1.52751,-3.91775 2.89734,-5.05077 1.76274,-1.45803 1.60646,0.13865 1.04233,1.69709 z"
         inkscape:connector-curvature="0"
         style="opacity:1;fill:#194a77;stroke:none" />
      <path
         id="path4569"
         d="m 130.49795,82.81324 c -0.37438,-5.504875 -0.41569,-11.194756 -0.38787,-17.348 3.4496,5.295121 2.21801,11.224144 0.38787,17.348 z"
         inkscape:connector-curvature="0"
         style="opacity:1;fill:#78acdd;stroke:none" />
      <path
         id="path4571"
         d="m 204.30023,119.77544 c 0.52463,1.7892 1.72894,4.1588 -0.46033,4.80682 -1.5476,0.45811 -2.32421,-1.93631 -3.17094,-3.27492 -1.50334,-2.37664 -2.90733,-4.81612 -4.50938,-8.06936 -0.002,-0.96517 0.1517,-1.09029 0.59823,-1.2714 2.15106,2.69882 4.00968,5.4536 6.10822,8.10709 0.50192,-0.1986 0.76391,-0.29588 1.4342,-0.29823 z"
         inkscape:connector-curvature="0"
         style="opacity:1;fill:#194a77;stroke:none" />
      <path
         id="path4573"
         d="m 195.70969,112.85613 c 0.12686,0.26362 0.0994,0.46622 0.10916,0.56494 0.01,3.73683 0.01,7.37494 0.01,11.01306 -0.50527,-0.0117 -1.01053,-0.0233 -1.51579,-0.0349 -1.03267,-4.39665 -0.80599,-8.96525 -0.27994,-13.3416 0.39731,-3.30529 1.91954,-1.23735 2.92233,0.51469 -0.0768,0.58959 -0.27251,0.82054 -0.67541,1.1657 -0.3545,0.0412 -0.52576,-0.0521 -0.57016,0.11815 z"
         inkscape:connector-curvature="0"
         style="opacity:1;fill:#0d3d6a;stroke:none" />
      <path
         id="path4575"
         d="m 242.23602,122.5361 c -0.18174,0.74776 -0.20019,1.1987 -0.23739,1.98762 -5.87787,-4.81117 -5.81058,-11.05874 0.52069,-14.92574 0.39036,0.15481 0.40477,0.39342 0.44511,0.98969 0.11989,4.13752 -0.85515,7.86146 -0.72841,11.94843 z"
         inkscape:connector-curvature="0"
         style="opacity:1;fill:#0d3d6a;stroke:none" />
      <path
         id="path4577"
         d="m 188.12759,119.74403 c -4.0383,-0.17581 -7.12433,0.44957 -8.04736,5.37342 -0.66374,-3.70997 1.03391,-6.46428 2.00024,-9.73558 0.33793,-0.45842 0.5345,-0.57811 1.06752,-0.62084 1.21119,0.78585 1.90087,1.7889 3.49915,1.99596 0.70963,0.41548 1.00557,0.77376 1.33186,1.53744 0.19904,0.56137 0.29187,0.78165 0.14859,1.4496 z"
         inkscape:connector-curvature="0"
         style="opacity:1;fill:#0d3d6a;stroke:none" />
      <path
         id="path4579"
         d="m 183.95019,115.36153 c -0.48562,-0.24707 -0.73437,-0.25772 -1.35575,-0.29338 0.39032,-2.04338 -0.0224,-5.46842 2.50218,-5.56382 2.66661,-0.1008 2.05882,3.48841 3.09865,5.34394 0.31375,0.55988 0.48394,1.20022 0.81987,2.1887 0.1,0.38501 -0.36255,0.47093 -0.36255,0.47093 0,0 -0.12773,0.45263 0.0879,0.5454 -0.20424,0.17396 -0.62413,0.25516 -1.36473,0.31854 -0.94905,-1.27744 -2.47004,-1.60821 -3.42557,-3.01031 z"
         inkscape:connector-curvature="0"
         style="opacity:1;fill:#194a77;stroke:none" />
      <path
         id="path4581"
         d="m 132.50647,121.24161 c -1.16612,-3.99969 -2.35477,-7.7563 -2.21005,-13.04975 3.18962,4.25778 2.73477,8.32 3.72839,12.33535 0.0361,0.41104 -0.0841,0.53698 -0.14423,0.59998 -0.38877,0.31274 -0.75587,0.39903 -1.37411,0.11442 z"
         inkscape:connector-curvature="0"
         style="opacity:1;fill:#194a77;stroke:none" />
      <path
         id="path4583"
         d="m 116.48019,91.142899 c 0.54118,1.451751 1.01156,2.942031 2.44365,4.348487 -3.49743,0.648575 -4.25004,-0.51477 -2.44365,-4.348487 z"
         inkscape:connector-curvature="0"
         style="opacity:1;fill:#78acdd;stroke:none" />
      <path
         id="path4585"
         d="m 188.73486,118.27369 c 0.93668,1.50937 2.42398,3.60639 2.08435,6.52705 -2.4244,-0.61235 -1.97009,-2.71049 -2.85464,-4.25613 0.0863,-0.73222 0.24562,-1.11153 0.77029,-2.27092 z"
         inkscape:connector-curvature="0"
         style="opacity:1;fill:#194a77;stroke:none" />
      <path
         id="path4587"
         d="m 132.27628,121.34364 c 0.35906,-0.28876 0.70066,-0.26809 1.29324,-0.20043 0.71788,0.59925 1.1848,1.15151 1.91885,1.79273 0.20223,0.90208 0.10852,1.69673 -1.199,1.89249 -0.47388,-0.12871 -0.64765,-0.24538 -1.03208,-0.59486 -0.47326,-1.01537 -0.73587,-1.79794 -0.98101,-2.88993 z"
         inkscape:connector-curvature="0"
         style="opacity:1;fill:#0d3d6a;stroke:none" />
      <path
         id="path4589"
         d="m 141.98578,122.3141 c 0.5668,-0.29842 1.00372,-0.30289 1.76828,-0.29995 -0.0298,1.00103 1.0341,2.94324 -1.21903,2.65833 -1.07754,-0.13626 -1.55706,-1.00856 -0.54925,-2.35838 z"
         inkscape:connector-curvature="0"
         style="opacity:1;fill:#0b3b68;stroke:none" />
      <path
         id="path4591"
         d="m 216.57016,111.36404 c 0.34772,-1.05469 1.01988,-2.37638 1.91124,-1.77358 1.15112,0.77847 -0.1721,1.60716 -0.94072,2.5021 -0.42886,-0.0335 -0.58902,-0.22789 -0.97052,-0.72852 z"
         inkscape:connector-curvature="0"
         style="opacity:1;fill:#194a77;stroke:none" />
      <path
         id="path4593"
         d="m 203.38583,109.86643 c 1.42896,-0.38878 1.4683,0.36889 1.19237,1.23921 -0.0731,0.23047 -0.45009,0.52765 -0.67642,0.51851 -1.03337,-0.0417 -0.58273,-0.89254 -0.51595,-1.75772 z"
         inkscape:connector-curvature="0"
         style="opacity:1;fill:#073763;stroke:none" />
      <path
         id="path4595"
         d="m 107.13641,92.906403 c -0.19607,-0.382645 -0.14592,-0.819947 -0.0303,-1.581055 1.19941,0.171562 1.85872,0.721084 0.0303,1.581055 z"
         inkscape:connector-curvature="0"
         style="opacity:1;fill:#78acdd;stroke:none" />
      <path
         id="path4597"
         d="m 189.08838,117.51581 c 0.0118,-0.0222 -0.217,0.13332 -0.24132,0.26164 -0.0243,0.12831 -0.17023,0.36288 -0.0306,0.36575 0.23378,-0.16153 0.26148,-0.34353 0.2607,-0.63218 0.038,-0.089 -5.8e-4,0.027 0.0112,0.005 z"
         inkscape:connector-curvature="0"
         style="opacity:1;fill:#73a7d9;stroke:none" />
      <path
         id="path4599"
         d="m 158.53783,123.80082 c -0.32433,1.66807 -1.39359,1.08338 -2.41289,0.75376 0.18849,-0.36597 0.37698,-0.73195 0.91046,-1.04072 0.61565,0.0626 0.88631,0.0681 1.50243,0.28696 z"
         inkscape:connector-curvature="0"
         style="opacity:1;fill:#0d3d6a;stroke:none" />
      <path
         id="path4601"
         d="m 314.67487,64.132263 c 0.2611,0.244698 0.14993,0.512551 -0.42017,0.68071 -0.0881,-0.21244 0.0808,-0.398399 0.42017,-0.68071 z"
         inkscape:connector-curvature="0"
         style="opacity:1;fill:#73a7d9;stroke:none" />
      <path
         id="path4603"
         d="m 152.33813,124.80402 c -0.28155,-0.23999 -0.20333,-0.49159 0.0166,-1.1135 0.86041,0.0312 1.36241,0.46241 -0.0166,1.1135 z"
         inkscape:connector-curvature="0"
         style="opacity:1;fill:#194a77;stroke:none" />
      <path
         id="path4605"
         d="m 133.08035,124.24781 c 0.20995,-0.10837 0.43065,0.0603 0.76865,0.41383 0.14024,0.15475 -0.3584,0.16019 -0.3584,0.16019 0,0 -0.37651,-0.32698 -0.41025,-0.57402 z"
         inkscape:connector-curvature="0"
         style="opacity:1;fill:#194a77;stroke:none" />
      <path
         id="path4607"
         d="m 158.82806,123.76167 c -0.19856,0.19239 -0.45234,0.13219 -1.07692,-0.0593 0.0934,-0.15196 0.55753,-0.17261 1.07692,0.0593 z"
         inkscape:connector-curvature="0"
         style="opacity:1;fill:#194a77;stroke:none" />
      <path
         id="path4609"
         d="m 204.64294,119.45443 c -0.20126,0.43649 -0.46814,0.45704 -1.13598,0.49776 -0.20592,-0.75653 -0.21361,-1.85269 1.13598,-0.49776 z"
         inkscape:connector-curvature="0"
         style="opacity:1;fill:#073763;stroke:none" />
      <path
         id="path4611"
         d="m 445.88101,57.161057 c -5.52515,0.04253 -10.74011,0.704154 -16.16977,-0.777184 3.70993,-4.141624 7.70386,-7.860901 11.6453,-11.634975 3.02163,-2.893387 6.28506,-4.024407 9.53115,-0.67688 3.2602,3.362075 2.00733,6.60017 -1.01394,9.489635 -0.95523,0.913574 -1.85974,1.88023 -2.89847,3.151894 -0.3295,0.355663 -0.548,0.382023 -1.09427,0.44751 z"
         inkscape:connector-curvature="0"
         style="opacity:1;fill:#73a7d9;stroke:none" />
      <path
         id="path4613"
         d="m 433.3894,98.487038 c 4.5163,4.467822 3.4202,10.638732 4.43436,16.244852 0.18527,1.02411 -0.64062,1.99279 -1.86755,1.75964 -1.49298,-0.28371 -2.51352,-1.65028 -2.31147,-2.8843 0.8191,-5.00277 -1.47116,-9.8729 -0.25534,-15.120192 z"
         inkscape:connector-curvature="0"
         style="opacity:1;fill:#77abdc;stroke:none" />
      <path
         id="path4615"
         d="m 429.37244,82.020592 c 2.69522,1.727607 5.26892,3.913566 8.05761,6.372322 -1.89572,1.130729 -2.59964,3.379303 -4.03647,4.967773 -3.81402,-2.9114 -5.15158,-6.458557 -4.02114,-11.340095 z"
         inkscape:connector-curvature="0"
         style="opacity:1;fill:#77abdc;stroke:none" />
      <path
         id="path4617"
         d="m 419.41052,76.084869 c -0.32791,-1.182861 -0.32791,-2.282508 -0.32791,-4.279022 3.74567,3.425041 6.87534,6.286797 10.17239,9.420311 -5.15814,2.306252 -6.18344,-3.472519 -9.84448,-5.141289 z"
         inkscape:connector-curvature="0"
         style="opacity:1;fill:#77abdc;stroke:none" />
      <path
         id="path4619"
         d="m 435.20398,123.14465 c 0.67282,-1.92681 1.53949,-1.74586 2.2948,-0.43795 0.49017,0.84875 0.62201,2.01632 -0.5098,2.39894 -1.22864,0.41537 -1.52099,-0.73687 -1.785,-1.96099 z"
         inkscape:connector-curvature="0"
         style="opacity:1;fill:#77abdc;stroke:none" />
      <path
         id="path4621"
         d="m 92.302826,56.747971 c -3.535179,0.361454 -7.32766,0.441371 -11.562531,0.442276 -0.649231,0.04138 -0.856063,0.161777 -1.415809,0.339553 -4.170563,-1.316295 -4.538353,-5.173969 -6.197571,-8.092846 -1.550545,-2.72771 -2.431984,-5.760047 -3.752678,-8.662616 -3.031944,5.479458 -4.155518,11.858406 -9.000473,16.587715 -0.569771,0.130184 -0.809196,0.121555 -1.35733,-0.07104 -4.286404,-0.0705 -8.264096,0.04297 -12.672753,0.216465 -0.430965,0.06002 -0.384933,0.105812 -0.379703,0.138618 5.015396,-10.78511 10.077057,-21.579639 15.006626,-32.434156 1.633057,-3.595862 3.873436,-6.145632 8.08522,-6.259287 4.560303,-0.123059 6.763512,2.853487 8.463036,6.48719 4.838081,10.344132 9.683899,20.684643 14.783966,31.308125 z"
         inkscape:connector-curvature="0"
         style="opacity:1;fill:#77aadb;stroke:none" />
      <path
         id="path4623"
         d="m 31.546188,92.10144 c 0.378371,0.311844 0.526795,0.724213 0.776322,1.44954 -0.851605,0.147804 -2.178101,0.231697 -0.776322,-1.44954 z"
         inkscape:connector-curvature="0"
         style="opacity:1;fill:#77abdc;stroke:none" />
      <path
         id="path4625"
         d="m 419.01349,56.562286 c -4.35788,0.54266 -8.75455,0.616227 -13.60901,0.578629 -0.38959,-10.065731 -0.33359,-20.020401 -0.24664,-29.974798 0.0308,-3.521014 0.77673,-6.62372 4.74185,-7.807705 5.06747,-1.513155 8.93075,1.485925 9.00982,7.35877 0.1319,9.79052 0.0545,19.583855 0.10398,29.845104 z"
         inkscape:connector-curvature="0"
         style="opacity:1;fill:#73a7d9;stroke:none" />
      <path
         id="path4627"
         d="m 193.98697,56.57515 c -4.32944,0.52251 -8.726,0.592762 -13.58151,0.558319 -0.42159,-2.591813 -0.45534,-5.082466 -0.33204,-7.565319 0.25956,-5.226361 2.29114,-7.491852 6.63926,-7.552018 4.49762,-0.06223 6.98568,2.575539 7.14436,7.638493 0.0675,2.154629 0.0446,4.312092 0.12993,6.920525 z"
         inkscape:connector-curvature="0"
         style="opacity:1;fill:#73a7d9;stroke:none" />
      <path
         id="path4629"
         d="m 194.54291,22.712597 c 0.91966,4.831941 -0.90409,7.839229 -5.17259,9.12389 -4.19318,1.261986 -8.83146,-0.764456 -9.97033,-4.347164 -1.1163,-3.511664 -0.29028,-6.576161 3.08501,-8.558497 4.12123,-2.420446 8.71741,-1.081049 12.05791,3.781771 z"
         inkscape:connector-curvature="0"
         style="opacity:1;fill:#73a7d9;stroke:none" />
      <path
         id="path4631"
         d="m 426.7598,56.992996 c -0.87558,2.932385 -2.29377,4.493271 -7.91184,8.888024 0,-3.087307 0,-5.577305 0.0587,-8.500931 2.50344,-0.397919 4.94821,-0.362202 7.85318,-0.387093 z"
         inkscape:connector-curvature="0"
         style="opacity:1;fill:#73a7d9;stroke:none" />
      <path
         id="path4633"
         d="m 237.79059,54.711979 c -5.07944,-0.326054 -11.01569,1.978794 -13.96143,-0.928761 -3.1604,-3.119403 -0.96605,-9.146537 -1.05499,-13.891864 -0.17995,-9.602503 -0.0538,-9.588463 9.78723,-9.61254 4.82007,-0.01179 9.64668,-0.116256 14.41274,0.750574 6.27894,1.141991 9.06776,4.55983 9.15831,11.076661 0.0922,6.636768 -2.87241,10.729385 -8.95095,11.844902 -2.92059,0.53598 -5.94166,0.524562 -9.39091,0.761028 z"
         inkscape:connector-curvature="0"
         style="opacity:1;fill:#0a3a66;stroke:none" />
      <path
         id="path4635"
         d="m 78.690758,56.776993 c 0.637459,0.264698 0.831459,0.27396 1.316307,0.308731 -0.113358,3.020599 1.729614,5.326523 2.756126,7.866745 0.792954,1.96225 0.301438,2.767746 -1.807014,2.760559 -7.767212,-0.02646 -15.534668,-0.0367 -23.301811,-0.0036 -2.643647,0.01125 -2.585358,-1.22615 -1.702878,-3.131805 1.029053,-2.222161 1.923241,-4.506771 2.81609,-7.117409 0.108982,-0.365734 0.277821,-0.378353 0.700569,-0.396416 6.329933,-3.603126 12.519989,-3.26519 19.222611,-0.286758 z"
         inkscape:connector-curvature="0"
         style="opacity:1;fill:#73a7d9;stroke:none" />
      <path
         id="path4637"
         d="m 294.17676,80.665588 c -0.32236,-4.615776 1.89398,-6.735527 5.79992,-7.765174 3.27671,-0.863762 6.5683,-0.903992 9.89139,-0.894547 5.31198,0.01509 6.25232,1.331459 4.69943,6.553169 -1.55429,5.22638 -5.60406,8.636322 -10.82858,8.748108 -4.50091,0.0963 -8.1625,-1.409134 -9.56216,-6.641556 z"
         inkscape:connector-curvature="0"
         style="opacity:1;fill:#77abdc;stroke:none" />
      <path
         id="path4639"
         d="m 175.14923,113.07195 c -0.17432,3.74365 -2.53857,4.0151 -4.81955,3.12349 -1.87489,-0.73288 -1.57469,-3.31894 -0.68343,-4.24683 1.67566,-1.74455 3.82323,-1.30333 5.50298,1.12334 z"
         inkscape:connector-curvature="0"
         style="opacity:1;fill:#73a7d9;stroke:none" />
      <path
         id="path4641"
         d="m 271.84271,113.79976 c -0.0446,-2.89433 1.57147,-2.9567 3.35962,-2.63704 1.39343,0.24908 2.55615,0.87913 2.53516,2.53401 -0.0203,1.59819 -1.13178,2.3028 -2.50131,2.64803 -1.84742,0.46568 -3.353,0.29602 -3.39347,-2.545 z"
         inkscape:connector-curvature="0"
         style="opacity:1;fill:#73a7d9;stroke:none" />
      <path
         id="path4643"
         d="m 304.05951,112.03314 c 3.03619,-1.72818 5.17828,-1.1361 6.2861,1.77842 1.18201,3.1095 1.32797,6.42792 -1.58774,8.57492 -2.12484,1.56462 -4.4927,0.90233 -5.7532,-1.71402 -1.40329,-2.9127 -1.20203,-5.75055 1.05484,-8.63932 z"
         inkscape:connector-curvature="0"
         style="opacity:1;fill:#77aadb;stroke:none" />
      <path
         id="path4645"
         d="m 242.47285,122.86681 c -3.39289,-3.93618 -3.81085,-7.76515 0.22161,-11.69866 4.73529,-0.34197 6.17943,2.43096 6.04104,6.20258 -0.12976,3.53689 -1.53172,6.21212 -6.26265,5.49608 z"
         inkscape:connector-curvature="0"
         style="opacity:1;fill:#77aadb;stroke:none" />
      <path
         id="path4647"
         d="m 195.90369,113.06016 c -0.0671,0.0596 -0.27852,-0.26008 -0.27852,-0.26008 0,0 0.31999,-0.0605 0.39572,0.006 0.0757,0.0665 -0.0501,0.19455 -0.1172,0.25414 z"
         inkscape:connector-curvature="0"
         style="opacity:1;fill:#194a77;stroke:none" />
      <path
         id="path4649"
         d="m 183.62216,115.51068 c 0.51055,-1.08066 0.92995,-1.77576 1.34935,-2.47086 1.66972,1.08188 1.40172,3.02955 2.06297,4.94271 -1.54675,0.11522 -4.19686,1.41145 -3.41232,-2.47185 z"
         inkscape:connector-curvature="0"
         style="opacity:1;fill:#73a7d9;stroke:none" />
      <path
         id="path4651"
         d="m 78.990158,56.70026 c -6.000824,0.353989 -12.145721,0.375809 -18.779358,0.377834 2.513851,-6.96088 5.516449,-13.901969 9.002831,-21.961418 3.558304,7.85043 6.595382,14.550927 9.776527,21.583584 z"
         inkscape:connector-curvature="0"
         style="opacity:1;fill:#0a3a66;stroke:none" />
    </g>
    <path
       style="fill:#073763;fill-opacity:1;stroke-width:2.22144151"
       d="M 7.4960938 7.6757812 L 7.4960938 67.501953 L 31.570312 67.501953 L 52.144531 14.679688 L 74.701172 14.679688 L 95.851562 67.501953 L 120.50391 67.501953 L 120.50391 7.6757812 L 7.4960938 7.6757812 z M 63.171875 39.324219 L 52.916016 67.501953 L 73.634766 67.501953 L 63.171875 39.324219 z "
       transform="matrix(0.26458334,0,0,0.26458334,0,263.13332)"
       id="rect4742" />
    <path
       style="font-style:normal;font-variant:normal;font-weight:bold;font-stretch:normal;font-size:39.04906082px;line-height:10.16902637px;font-family:Arial;-inkscape-font-specification:'Arial Bold';font-variant-ligatures:normal;font-variant-caps:normal;font-variant-numeric:normal;font-feature-settings:normal;text-align:center;letter-spacing:0px;word-spacing:0px;writing-mode:lr-tb;text-anchor:middle;fill:#073763;fill-opacity:1;stroke:none;stroke-width:1.53736472"
       d="M 31.570312 67.501953 L 10.996094 120.32422 L 33.625 120.32422 L 42.345703 96.328125 L 84.574219 96.328125 L 93.798828 120.32422 L 117.00391 120.32422 L 95.851562 67.501953 L 73.634766 67.501953 L 77.728516 78.527344 L 48.902344 78.527344 L 52.916016 67.501953 L 31.570312 67.501953 z "
       transform="matrix(0.26458334,0,0,0.26458334,0,263.13332)"
       id="text4487" />
  </g>
</svg>
