<?xml version="1.0" encoding="UTF-8" standalone="no"?>
<!-- Created with Inkscape (http://www.inkscape.org/) -->

<svg
   xmlns:dc="http://purl.org/dc/elements/1.1/"
   xmlns:cc="http://creativecommons.org/ns#"
   xmlns:rdf="http://www.w3.org/1999/02/22-rdf-syntax-ns#"
   xmlns:svg="http://www.w3.org/2000/svg"
   xmlns="http://www.w3.org/2000/svg"
   xmlns:sodipodi="http://sodipodi.sourceforge.net/DTD/sodipodi-0.dtd"
   xmlns:inkscape="http://www.inkscape.org/namespaces/inkscape"
   width="256"
   height="256"
   viewBox="0 0 67.733332 67.733335"
   version="1.1"
   id="svg8"
   inkscape:version="0.92.0 r15299"
   sodipodi:docname="safari-pinned-tab.svg"
   inkscape:export-filename="G:\Desktop\bitmddap.png"
   inkscape:export-xdpi="384.00003"
   inkscape:export-ydpi="384.00003">
  <defs
     id="defs2" />
  <sodipodi:namedview
     id="base"
     pagecolor="#ffffff"
     bordercolor="#00d23e"
     borderopacity="1"
     inkscape:pageopacity="0.0"
     inkscape:pageshadow="2"
     inkscape:zoom="0.9899495"
     inkscape:cx="518.07965"
     inkscape:cy="-64.237773"
     inkscape:document-units="mm"
     inkscape:current-layer="layer1"
     showgrid="false"
     units="px"
     inkscape:showpageshadow="false"
     borderlayer="true"
     inkscape:window-width="1920"
     inkscape:window-height="1017"
     inkscape:window-x="1432"
     inkscape:window-y="-8"
     inkscape:window-maximized="1">
    <inkscape:grid
       type="xygrid"
       id="grid4493" />
  </sodipodi:namedview>
  <metadata
     id="metadata5">
    <rdf:RDF>
      <cc:Work
         rdf:about="">
        <dc:format>image/svg+xml</dc:format>
        <dc:type
           rdf:resource="http://purl.org/dc/dcmitype/StillImage" />
        <dc:title></dc:title>
      </cc:Work>
    </rdf:RDF>
  </metadata>
  <g
     inkscape:label="Capa 1"
     inkscape:groupmode="layer"
     id="layer1"
     transform="translate(0,-229.26665)">
    <path
       style="font-style:normal;font-variant:normal;font-weight:bold;font-stretch:normal;font-size:93.10677338px;line-height:24.24655724px;font-family:Calibri;-inkscape-font-specification:'Calibri Bold';font-variant-ligatures:normal;font-variant-caps:normal;font-variant-numeric:normal;font-feature-settings:normal;text-align:center;letter-spacing:0px;word-spacing:0px;writing-mode:lr-tb;text-anchor:middle;fill:#0a100c;fill-opacity:1;stroke:none;stroke-width:3.66562128"
       d="M 102.5293 15.796875 C 96.687213 15.796875 91.990523 15.911524 88.439453 16.140625 C 84.888383 16.255176 82.081443 16.656446 80.019531 17.34375 C 78.07217 17.916503 76.641015 18.833693 75.724609 20.09375 C 74.808204 21.239257 74.005663 22.785061 73.318359 24.732422 L 4.7597656 221.98828 C 3.3851578 225.99755 2.5272457 229.20576 2.1835938 231.61133 C 1.8399418 234.01689 2.2412122 235.90664 3.3867188 237.28125 C 4.5322253 238.54131 6.5939486 239.34385 9.5722656 239.6875 C 12.550583 240.03115 16.674029 240.20312 21.943359 240.20312 C 26.869038 240.20313 30.820511 240.08848 33.798828 239.85938 C 36.891696 239.63027 39.240041 239.229 40.84375 238.65625 C 42.56201 237.96895 43.765821 237.10908 44.453125 236.07812 C 45.25498 234.93262 45.883594 233.55879 46.341797 231.95508 L 60.431641 188.48242 L 88.982422 188.48242 L 88.982422 232.98633 C 88.982422 234.13183 89.326368 235.16172 90.013672 236.07812 C 90.700976 236.99453 91.902834 237.73975 93.621094 238.3125 C 95.339354 238.88525 97.630374 239.34385 100.49414 239.6875 C 103.47246 240.03115 107.13926 240.20312 111.49219 240.20312 C 115.95966 240.20312 119.62451 240.03115 122.48828 239.6875 C 125.35205 239.34385 127.64307 238.88525 129.36133 238.3125 C 131.07959 237.73975 132.2834 236.99453 132.9707 236.07812 C 133.77256 235.16172 134.17383 234.13183 134.17383 232.98633 L 134.17383 188.48242 L 143.93945 188.48242 L 158.88867 233.1582 C 159.34687 234.64736 159.92012 235.84922 160.60742 236.76562 C 161.29473 237.68203 162.49658 238.42725 164.21484 239 C 165.9331 239.4582 168.3961 239.74482 171.60352 239.85938 C 174.92548 240.08848 179.50753 240.20312 185.34961 240.20312 C 190.96259 240.20312 195.37266 240.03115 198.58008 239.6875 C 201.7875 239.4584 204.02119 238.77051 205.28125 237.625 C 205.88008 237.02617 206.29267 236.2931 206.5293 235.43555 C 206.68833 235.71798 206.85368 235.98951 207.02734 236.25 C 207.71465 237.16641 208.85918 237.96895 210.46289 238.65625 C 212.18115 239.229 214.47217 239.63027 217.33594 239.85938 C 220.1997 240.08848 224.03848 240.20312 228.84961 240.20312 C 234.57714 240.20313 239.10186 240.08848 242.42383 239.85938 C 245.7458 239.63027 248.26612 239.229 249.98438 238.65625 C 251.70263 238.0835 252.78984 237.3956 253.24805 236.59375 C 253.70625 235.67734 253.93555 234.59014 253.93555 233.33008 C 253.93555 232.18457 253.64893 230.63681 253.07617 228.68945 C 252.50342 226.62754 251.35888 223.42128 249.64062 219.06836 L 230.91016 175.25195 C 228.73369 169.98262 226.5 165.28593 224.20898 161.16211 C 221.91797 156.92374 219.45693 153.20156 216.82227 149.99414 C 214.30215 146.67217 211.55254 143.86523 208.57422 141.57422 C 205.71045 139.28321 202.61689 137.33613 199.29492 135.73242 C 206.16796 133.55596 212.29581 130.6917 217.67969 127.14062 C 223.06357 123.58955 227.58829 119.40878 231.25391 114.59766 C 234.91953 109.78653 237.66914 104.34462 239.50195 98.273438 C 241.44931 92.087702 242.42383 85.271965 242.42383 77.826172 C 242.42383 69.005771 241.10537 61.217473 238.4707 54.458984 C 235.83604 47.585945 231.99921 41.685444 226.95898 36.759766 C 222.03331 31.719537 215.96279 27.653415 208.74609 24.560547 C 201.64395 21.467679 193.6244 19.291307 184.68945 18.03125 C 181.59659 17.687598 178.16103 17.400976 174.38086 17.171875 C 170.60069 16.942774 165.78935 16.828125 159.94727 16.828125 L 125.82617 16.828125 C 123.90128 16.456593 121.5346 16.222138 118.68164 16.140625 C 114.67237 15.911524 109.28779 15.796875 102.5293 15.796875 z M 144.45508 51.365234 L 154.44922 51.365234 C 159.604 51.365234 163.6128 51.537207 166.47656 51.880859 C 169.45488 52.224511 172.08985 52.683106 174.38086 53.255859 C 181.9412 55.317771 187.38116 58.867974 190.70312 63.908203 C 194.02509 68.948432 195.6875 75.135555 195.6875 82.466797 C 195.6875 87.277924 194.88496 91.630668 193.28125 95.525391 C 191.67754 99.420113 189.27187 102.79834 186.06445 105.66211 C 182.85703 108.41133 178.84824 110.5877 174.03711 112.19141 C 171.6406 112.93318 169.04442 113.491 166.25 113.86328 L 144.45508 51.365234 z M 88.982422 97.917969 L 88.982422 153.77344 L 70.398438 153.77344 L 88.982422 97.917969 z "
       transform="matrix(0.26458333,0,0,0.26458333,0,229.26665)"
       id="text4491" />
  </g>
</svg>
